<svg version="1.1" xmlns="http://www.w3.org/2000/svg" xmlns:xlink="http://www.w3.org/1999/xlink" width="1070" height="205.47244659772"><style xmlns="http://www.w3.org/1999/xhtml"></style><defs/><g transform="translate(0,0)"><g><rect fill="#FFFFFF" stroke="none" x="0" y="0" width="1070" height="205.47244659772" style="fill: #DFE8EE;"/></g><g transform="translate(0,0) matrix(1,0,0,1,982.1489980304501,0) scale(0.028209702379091497,0.024982818776632533) translate(0,-128)"><g transform="translate(0,0) scale(1,1)"><g><path fill="#fff" stroke="rgb(0,0,0)" d="M 1792 1120 L 1792 288 C 1792 279.333 1788.833 271.833 1782.5 265.5 C 1776.167 259.167 1768.667 256 1760 256 L 160 256 C 151.333 256 143.833 259.167 137.5 265.5 C 131.167 271.833 128 279.333 128 288 L 128 1120 C 128 1128.667 131.167 1136.167 137.5 1142.5 C 143.833 1148.833 151.333 1152 160 1152 L 1760 1152 C 1768.667 1152 1776.167 1148.833 1782.5 1142.5 C 1788.833 1136.167 1792 1128.667 1792 1120 Z M 1920 288 L 1920 1376 C 1920 1420 1904.333 1457.667 1873 1489 C 1841.667 1520.333 1804 1536 1760 1536 L 1216 1536 C 1216 1560.667 1221.333 1586.5 1232 1613.5 C 1242.667 1640.5 1253.333 1664.167 1264 1684.5 C 1274.667 1704.833 1280 1719.333 1280 1728 C 1280 1745.333 1273.667 1760.333 1261 1773 C 1248.333 1785.667 1233.333 1792 1216 1792 L 704 1792 C 686.667 1792 671.667 1785.667 659 1773 C 646.333 1760.333 640 1745.333 640 1728 C 640 1718.667 645.333 1704 656 1684 C 666.667 1664 677.333 1640.667 688 1614 C 698.667 1587.333 704 1561.333 704 1536 L 160 1536 C 116 1536 78.333 1520.333 47 1489 C 15.667 1457.667 0 1420 0 1376 L 0 288 C 0 244 15.667 206.333 47 175 C 78.333 143.667 116 128 160 128 L 1760 128 C 1804 128 1841.667 143.667 1873 175 C 1904.333 206.333 1920 244 1920 288 Z" stroke-opacity="0" stroke-miterlimit="10"/></g></g></g><g transform="translate(0,0) matrix(1,0,0,1,837.7153218495016,4.796701205113445) scale(0.028209702379091497,0.024982818776632533) translate(64,-256)"><g transform="translate(0,0) scale(1,1)"><g><path fill="#fff" stroke="rgb(0,0,0)" d="M 352 1280 Q 286 1280 239 1233 Q 192 1186 192 1120 L 192 416 Q 192 350 239 303 Q 286 256 352 256 L 1440 256 Q 1506 256 1553 303 Q 1600 350 1600 416 L 1600 1120 Q 1600 1186 1553 1233 Q 1506 1280 1440 1280 L 352 1280 Z M 320 416 L 320 1120 Q 320 1133 329.5 1142.5 Q 339 1152 352 1152 L 1440 1152 Q 1453 1152 1462.5 1142.5 Q 1472 1133 1472 1120 L 1472 416 Q 1472 403 1462.5 393.5 Q 1453 384 1440 384 L 352 384 Q 339 384 329.5 393.5 Q 320 403 320 416 Z M 1696 1344 L 1856 1344 L 1856 1440 Q 1856 1480 1809 1508 Q 1762 1536 1696 1536 L 96 1536 Q 30 1536 -17 1508 Q -64 1480 -64 1440 L -64 1344 L 1696 1344 Z M 976 1440 Q 992 1440 992 1424 Q 992 1408 976 1408 L 816 1408 Q 800 1408 800 1424 Q 800 1440 816 1440 L 976 1440 Z" stroke-opacity="0" stroke-miterlimit="10"/></g></g></g><g transform="translate(0,0) matrix(1,0,0,1,902.7104761309284,3.1978008034089638) scale(0.028209702379091497,0.024982818776632523) translate(-320,-128)"><g transform="translate(0,0) scale(1,1)"><g><path fill="#fff" stroke="rgb(0,0,0)" d="M 960 1408 Q 960 1382 941 1363 Q 922 1344 896 1344 Q 870 1344 851 1363 Q 832 1382 832 1408 Q 832 1434 851 1453 Q 870 1472 896 1472 Q 922 1472 941 1453 Q 960 1434 960 1408 Z M 1344 1248 L 1344 288 Q 1344 275 1334.5 265.5 Q 1325 256 1312 256 L 480 256 Q 467 256 457.5 265.5 Q 448 275 448 288 L 448 1248 Q 448 1261 457.5 1270.5 Q 467 1280 480 1280 L 1312 1280 Q 1325 1280 1334.5 1270.5 Q 1344 1261 1344 1248 Z M 1472 288 L 1472 1376 Q 1472 1442 1425 1489 Q 1378 1536 1312 1536 L 480 1536 Q 414 1536 367 1489 Q 320 1442 320 1376 L 320 288 Q 320 222 367 175 Q 414 128 480 128 L 1312 128 Q 1378 128 1425 175 Q 1472 222 1472 288 Z" stroke-opacity="0" stroke-miterlimit="10"/></g></g></g><g transform="translate(0,0) matrix(1,0,0,1,948.8964266733364,4.796701205113445) scale(0.0282097023790915,0.024982818776632533) translate(-512,-256)"><g transform="translate(0,0) scale(1,1)"><g><path fill="#fff" stroke="rgb(0,0,0)" d="M 976 1408 Q 976 1375 952.5 1351.5 Q 929 1328 896 1328 Q 863 1328 839.5 1351.5 Q 816 1375 816 1408 Q 816 1441 839.5 1464.5 Q 863 1488 896 1488 Q 929 1488 952.5 1464.5 Q 976 1441 976 1408 Z M 1184 1248 L 1184 544 Q 1184 531 1174.5 521.5 Q 1165 512 1152 512 L 640 512 Q 627 512 617.5 521.5 Q 608 531 608 544 L 608 1248 Q 608 1261 617.5 1270.5 Q 627 1280 640 1280 L 1152 1280 Q 1165 1280 1174.5 1270.5 Q 1184 1261 1184 1248 Z M 992 400 Q 992 384 976 384 L 816 384 Q 800 384 800 400 Q 800 416 816 416 L 976 416 Q 992 416 992 400 Z M 1280 384 L 1280 1408 Q 1280 1460 1242 1498 Q 1204 1536 1152 1536 L 640 1536 Q 588 1536 550 1498 Q 512 1460 512 1408 L 512 384 Q 512 332 550 294 Q 588 256 640 256 L 1152 256 Q 1204 256 1242 294 Q 1280 332 1280 384 Z" stroke-opacity="0" stroke-miterlimit="10"/></g></g></g><g transform="translate(0,0) matrix(1,0,0,1,772.7201675680748,0) scale(0.028209702379091497,0.024982818776632533) translate(0,-128)"><g transform="translate(0,0) scale(1,1)"><g><path fill="#fff" stroke="rgb(0,0,0)" d="M 1792 1120 L 1792 288 C 1792 279.333 1788.833 271.833 1782.5 265.5 C 1776.167 259.167 1768.667 256 1760 256 L 160 256 C 151.333 256 143.833 259.167 137.5 265.5 C 131.167 271.833 128 279.333 128 288 L 128 1120 C 128 1128.667 131.167 1136.167 137.5 1142.5 C 143.833 1148.833 151.333 1152 160 1152 L 1760 1152 C 1768.667 1152 1776.167 1148.833 1782.5 1142.5 C 1788.833 1136.167 1792 1128.667 1792 1120 Z M 1920 288 L 1920 1376 C 1920 1420 1904.333 1457.667 1873 1489 C 1841.667 1520.333 1804 1536 1760 1536 L 1216 1536 C 1216 1560.667 1221.333 1586.5 1232 1613.5 C 1242.667 1640.5 1253.333 1664.167 1264 1684.5 C 1274.667 1704.833 1280 1719.333 1280 1728 C 1280 1745.333 1273.667 1760.333 1261 1773 C 1248.333 1785.667 1233.333 1792 1216 1792 L 704 1792 C 686.667 1792 671.667 1785.667 659 1773 C 646.333 1760.333 640 1745.333 640 1728 C 640 1718.667 645.333 1704 656 1684 C 666.667 1664 677.333 1640.667 688 1614 C 698.667 1587.333 704 1561.333 704 1536 L 160 1536 C 116 1536 78.333 1520.333 47 1489 C 15.667 1457.667 0 1420 0 1376 L 0 288 C 0 244 15.667 206.333 47 175 C 78.333 143.667 116 128 160 128 L 1760 128 C 1804 128 1841.667 143.667 1873 175 C 1904.333 206.333 1920 244 1920 288 Z" stroke-opacity="0" stroke-miterlimit="10"/></g></g></g><g transform="translate(0,0) matrix(1,0,0,1,733.0009066183139,47.96701205113445) scale(0.028209702379091497,0.024982818776632533) translate(0,-128)"><g transform="translate(0,0) scale(1,1)"><g><path fill="#fff" stroke="rgb(0,0,0)" d="M 1792 1120 L 1792 288 C 1792 279.333 1788.833 271.833 1782.5 265.5 C 1776.167 259.167 1768.667 256 1760 256 L 160 256 C 151.333 256 143.833 259.167 137.5 265.5 C 131.167 271.833 128 279.333 128 288 L 128 1120 C 128 1128.667 131.167 1136.167 137.5 1142.5 C 143.833 1148.833 151.333 1152 160 1152 L 1760 1152 C 1768.667 1152 1776.167 1148.833 1782.5 1142.5 C 1788.833 1136.167 1792 1128.667 1792 1120 Z M 1920 288 L 1920 1376 C 1920 1420 1904.333 1457.667 1873 1489 C 1841.667 1520.333 1804 1536 1760 1536 L 1216 1536 C 1216 1560.667 1221.333 1586.5 1232 1613.5 C 1242.667 1640.5 1253.333 1664.167 1264 1684.5 C 1274.667 1704.833 1280 1719.333 1280 1728 C 1280 1745.333 1273.667 1760.333 1261 1773 C 1248.333 1785.667 1233.333 1792 1216 1792 L 704 1792 C 686.667 1792 671.667 1785.667 659 1773 C 646.333 1760.333 640 1745.333 640 1728 C 640 1718.667 645.333 1704 656 1684 C 666.667 1664 677.333 1640.667 688 1614 C 698.667 1587.333 704 1561.333 704 1536 L 160 1536 C 116 1536 78.333 1520.333 47 1489 C 15.667 1457.667 0 1420 0 1376 L 0 288 C 0 244 15.667 206.333 47 175 C 78.333 143.667 116 128 160 128 L 1760 128 C 1804 128 1841.667 143.667 1873 175 C 1904.333 206.333 1920 244 1920 288 Z" stroke-opacity="0" stroke-miterlimit="10"/></g></g></g><g transform="translate(0,0) matrix(1,0,0,1,942.4297370806893,47.96701205113445) scale(0.028209702379091497,0.024982818776632533) translate(0,-128)"><g transform="translate(0,0) scale(1,1)"><g><path fill="#fff" stroke="rgb(0,0,0)" d="M 1792 1120 L 1792 288 C 1792 279.333 1788.833 271.833 1782.5 265.5 C 1776.167 259.167 1768.667 256 1760 256 L 160 256 C 151.333 256 143.833 259.167 137.5 265.5 C 131.167 271.833 128 279.333 128 288 L 128 1120 C 128 1128.667 131.167 1136.167 137.5 1142.5 C 143.833 1148.833 151.333 1152 160 1152 L 1760 1152 C 1768.667 1152 1776.167 1148.833 1782.5 1142.5 C 1788.833 1136.167 1792 1128.667 1792 1120 Z M 1920 288 L 1920 1376 C 1920 1420 1904.333 1457.667 1873 1489 C 1841.667 1520.333 1804 1536 1760 1536 L 1216 1536 C 1216 1560.667 1221.333 1586.5 1232 1613.5 C 1242.667 1640.5 1253.333 1664.167 1264 1684.5 C 1274.667 1704.833 1280 1719.333 1280 1728 C 1280 1745.333 1273.667 1760.333 1261 1773 C 1248.333 1785.667 1233.333 1792 1216 1792 L 704 1792 C 686.667 1792 671.667 1785.667 659 1773 C 646.333 1760.333 640 1745.333 640 1728 C 640 1718.667 645.333 1704 656 1684 C 666.667 1664 677.333 1640.667 688 1614 C 698.667 1587.333 704 1561.333 704 1536 L 160 1536 C 116 1536 78.333 1520.333 47 1489 C 15.667 1457.667 0 1420 0 1376 L 0 288 C 0 244 15.667 206.333 47 175 C 78.333 143.667 116 128 160 128 L 1760 128 C 1804 128 1841.667 143.667 1873 175 C 1904.333 206.333 1920 244 1920 288 Z" stroke-opacity="0" stroke-miterlimit="10"/></g></g></g><g transform="translate(0,0) matrix(1,0,0,1,797.9960608997408,52.7637132562479) scale(0.028209702379091497,0.024982818776632533) translate(64,-256)"><g transform="translate(0,0) scale(1,1)"><g><path fill="#fff" stroke="rgb(0,0,0)" d="M 352 1280 Q 286 1280 239 1233 Q 192 1186 192 1120 L 192 416 Q 192 350 239 303 Q 286 256 352 256 L 1440 256 Q 1506 256 1553 303 Q 1600 350 1600 416 L 1600 1120 Q 1600 1186 1553 1233 Q 1506 1280 1440 1280 L 352 1280 Z M 320 416 L 320 1120 Q 320 1133 329.5 1142.5 Q 339 1152 352 1152 L 1440 1152 Q 1453 1152 1462.5 1142.5 Q 1472 1133 1472 1120 L 1472 416 Q 1472 403 1462.5 393.5 Q 1453 384 1440 384 L 352 384 Q 339 384 329.5 393.5 Q 320 403 320 416 Z M 1696 1344 L 1856 1344 L 1856 1440 Q 1856 1480 1809 1508 Q 1762 1536 1696 1536 L 96 1536 Q 30 1536 -17 1508 Q -64 1480 -64 1440 L -64 1344 L 1696 1344 Z M 976 1440 Q 992 1440 992 1424 Q 992 1408 976 1408 L 816 1408 Q 800 1408 800 1424 Q 800 1440 816 1440 L 976 1440 Z" stroke-opacity="0" stroke-miterlimit="10"/></g></g></g><g transform="translate(0,0) matrix(1,0,0,1,862.9912151811676,51.16481285454342) scale(0.028209702379091497,0.024982818776632523) translate(-320,-128)"><g transform="translate(0,0) scale(1,1)"><g><path fill="#fff" stroke="rgb(0,0,0)" d="M 960 1408 Q 960 1382 941 1363 Q 922 1344 896 1344 Q 870 1344 851 1363 Q 832 1382 832 1408 Q 832 1434 851 1453 Q 870 1472 896 1472 Q 922 1472 941 1453 Q 960 1434 960 1408 Z M 1344 1248 L 1344 288 Q 1344 275 1334.5 265.5 Q 1325 256 1312 256 L 480 256 Q 467 256 457.5 265.5 Q 448 275 448 288 L 448 1248 Q 448 1261 457.5 1270.5 Q 467 1280 480 1280 L 1312 1280 Q 1325 1280 1334.5 1270.5 Q 1344 1261 1344 1248 Z M 1472 288 L 1472 1376 Q 1472 1442 1425 1489 Q 1378 1536 1312 1536 L 480 1536 Q 414 1536 367 1489 Q 320 1442 320 1376 L 320 288 Q 320 222 367 175 Q 414 128 480 128 L 1312 128 Q 1378 128 1425 175 Q 1472 222 1472 288 Z" stroke-opacity="0" stroke-miterlimit="10"/></g></g></g><g transform="translate(0,0) matrix(1,0,0,1,909.1771657235755,52.7637132562479) scale(0.0282097023790915,0.024982818776632533) translate(-512,-256)"><g transform="translate(0,0) scale(1,1)"><g><path fill="#fff" stroke="rgb(0,0,0)" d="M 976 1408 Q 976 1375 952.5 1351.5 Q 929 1328 896 1328 Q 863 1328 839.5 1351.5 Q 816 1375 816 1408 Q 816 1441 839.5 1464.5 Q 863 1488 896 1488 Q 929 1488 952.5 1464.5 Q 976 1441 976 1408 Z M 1184 1248 L 1184 544 Q 1184 531 1174.5 521.5 Q 1165 512 1152 512 L 640 512 Q 627 512 617.5 521.5 Q 608 531 608 544 L 608 1248 Q 608 1261 617.5 1270.5 Q 627 1280 640 1280 L 1152 1280 Q 1165 1280 1174.5 1270.5 Q 1184 1261 1184 1248 Z M 992 400 Q 992 384 976 384 L 816 384 Q 800 384 800 400 Q 800 416 816 416 L 976 416 Q 992 416 992 400 Z M 1280 384 L 1280 1408 Q 1280 1460 1242 1498 Q 1204 1536 1152 1536 L 640 1536 Q 588 1536 550 1498 Q 512 1460 512 1408 L 512 384 Q 512 332 550 294 Q 588 256 640 256 L 1152 256 Q 1204 256 1242 294 Q 1280 332 1280 384 Z" stroke-opacity="0" stroke-miterlimit="10"/></g></g></g><g transform="translate(0,0) matrix(1,0,0,1,882.850845656048,95.9340241022689) scale(0.028209702379091497,0.024982818776632533) translate(0,-128)"><g transform="translate(0,0) scale(1,1)"><g><path fill="#fff" stroke="rgb(0,0,0)" d="M 1792 1120 L 1792 288 C 1792 279.333 1788.833 271.833 1782.5 265.5 C 1776.167 259.167 1768.667 256 1760 256 L 160 256 C 151.333 256 143.833 259.167 137.5 265.5 C 131.167 271.833 128 279.333 128 288 L 128 1120 C 128 1128.667 131.167 1136.167 137.5 1142.5 C 143.833 1148.833 151.333 1152 160 1152 L 1760 1152 C 1768.667 1152 1776.167 1148.833 1782.5 1142.5 C 1788.833 1136.167 1792 1128.667 1792 1120 Z M 1920 288 L 1920 1376 C 1920 1420 1904.333 1457.667 1873 1489 C 1841.667 1520.333 1804 1536 1760 1536 L 1216 1536 C 1216 1560.667 1221.333 1586.5 1232 1613.5 C 1242.667 1640.5 1253.333 1664.167 1264 1684.5 C 1274.667 1704.833 1280 1719.333 1280 1728 C 1280 1745.333 1273.667 1760.333 1261 1773 C 1248.333 1785.667 1233.333 1792 1216 1792 L 704 1792 C 686.667 1792 671.667 1785.667 659 1773 C 646.333 1760.333 640 1745.333 640 1728 C 640 1718.667 645.333 1704 656 1684 C 666.667 1664 677.333 1640.667 688 1614 C 698.667 1587.333 704 1561.333 704 1536 L 160 1536 C 116 1536 78.333 1520.333 47 1489 C 15.667 1457.667 0 1420 0 1376 L 0 288 C 0 244 15.667 206.333 47 175 C 78.333 143.667 116 128 160 128 L 1760 128 C 1804 128 1841.667 143.667 1873 175 C 1904.333 206.333 1920 244 1920 288 Z" stroke-opacity="0" stroke-miterlimit="10"/></g></g></g><g transform="translate(0,0) matrix(1,0,0,1,738.4171694750995,100.73072530738236) scale(0.028209702379091497,0.024982818776632533) translate(64,-256)"><g transform="translate(0,0) scale(1,1)"><g><path fill="#fff" stroke="rgb(0,0,0)" d="M 352 1280 Q 286 1280 239 1233 Q 192 1186 192 1120 L 192 416 Q 192 350 239 303 Q 286 256 352 256 L 1440 256 Q 1506 256 1553 303 Q 1600 350 1600 416 L 1600 1120 Q 1600 1186 1553 1233 Q 1506 1280 1440 1280 L 352 1280 Z M 320 416 L 320 1120 Q 320 1133 329.5 1142.5 Q 339 1152 352 1152 L 1440 1152 Q 1453 1152 1462.5 1142.5 Q 1472 1133 1472 1120 L 1472 416 Q 1472 403 1462.5 393.5 Q 1453 384 1440 384 L 352 384 Q 339 384 329.5 393.5 Q 320 403 320 416 Z M 1696 1344 L 1856 1344 L 1856 1440 Q 1856 1480 1809 1508 Q 1762 1536 1696 1536 L 96 1536 Q 30 1536 -17 1508 Q -64 1480 -64 1440 L -64 1344 L 1696 1344 Z M 976 1440 Q 992 1440 992 1424 Q 992 1408 976 1408 L 816 1408 Q 800 1408 800 1424 Q 800 1440 816 1440 L 976 1440 Z" stroke-opacity="0" stroke-miterlimit="10"/></g></g></g><g transform="translate(0,0) matrix(1,0,0,1,803.4123237565263,99.13182490567787) scale(0.028209702379091497,0.024982818776632523) translate(-320,-128)"><g transform="translate(0,0) scale(1,1)"><g><path fill="#fff" stroke="rgb(0,0,0)" d="M 960 1408 Q 960 1382 941 1363 Q 922 1344 896 1344 Q 870 1344 851 1363 Q 832 1382 832 1408 Q 832 1434 851 1453 Q 870 1472 896 1472 Q 922 1472 941 1453 Q 960 1434 960 1408 Z M 1344 1248 L 1344 288 Q 1344 275 1334.5 265.5 Q 1325 256 1312 256 L 480 256 Q 467 256 457.5 265.5 Q 448 275 448 288 L 448 1248 Q 448 1261 457.5 1270.5 Q 467 1280 480 1280 L 1312 1280 Q 1325 1280 1334.5 1270.5 Q 1344 1261 1344 1248 Z M 1472 288 L 1472 1376 Q 1472 1442 1425 1489 Q 1378 1536 1312 1536 L 480 1536 Q 414 1536 367 1489 Q 320 1442 320 1376 L 320 288 Q 320 222 367 175 Q 414 128 480 128 L 1312 128 Q 1378 128 1425 175 Q 1472 222 1472 288 Z" stroke-opacity="0" stroke-miterlimit="10"/></g></g></g><g transform="translate(0,0) matrix(1,0,0,1,849.5982742989343,100.73072530738236) scale(0.0282097023790915,0.024982818776632533) translate(-512,-256)"><g transform="translate(0,0) scale(1,1)"><g><path fill="#fff" stroke="rgb(0,0,0)" d="M 976 1408 Q 976 1375 952.5 1351.5 Q 929 1328 896 1328 Q 863 1328 839.5 1351.5 Q 816 1375 816 1408 Q 816 1441 839.5 1464.5 Q 863 1488 896 1488 Q 929 1488 952.5 1464.5 Q 976 1441 976 1408 Z M 1184 1248 L 1184 544 Q 1184 531 1174.5 521.5 Q 1165 512 1152 512 L 640 512 Q 627 512 617.5 521.5 Q 608 531 608 544 L 608 1248 Q 608 1261 617.5 1270.5 Q 627 1280 640 1280 L 1152 1280 Q 1165 1280 1174.5 1270.5 Q 1184 1261 1184 1248 Z M 992 400 Q 992 384 976 384 L 816 384 Q 800 384 800 400 Q 800 416 816 416 L 976 416 Q 992 416 992 400 Z M 1280 384 L 1280 1408 Q 1280 1460 1242 1498 Q 1204 1536 1152 1536 L 640 1536 Q 588 1536 550 1498 Q 512 1460 512 1408 L 512 384 Q 512 332 550 294 Q 588 256 640 256 L 1152 256 Q 1204 256 1242 294 Q 1280 332 1280 384 Z" stroke-opacity="0" stroke-miterlimit="10"/></g></g></g><g transform="translate(0,0) matrix(1,0,0,1,673.4220151936727,95.9340241022689) scale(0.028209702379091497,0.024982818776632533) translate(0,-128)"><g transform="translate(0,0) scale(1,1)"><g><path fill="#fff" stroke="rgb(0,0,0)" d="M 1792 1120 L 1792 288 C 1792 279.333 1788.833 271.833 1782.5 265.5 C 1776.167 259.167 1768.667 256 1760 256 L 160 256 C 151.333 256 143.833 259.167 137.5 265.5 C 131.167 271.833 128 279.333 128 288 L 128 1120 C 128 1128.667 131.167 1136.167 137.5 1142.5 C 143.833 1148.833 151.333 1152 160 1152 L 1760 1152 C 1768.667 1152 1776.167 1148.833 1782.5 1142.5 C 1788.833 1136.167 1792 1128.667 1792 1120 Z M 1920 288 L 1920 1376 C 1920 1420 1904.333 1457.667 1873 1489 C 1841.667 1520.333 1804 1536 1760 1536 L 1216 1536 C 1216 1560.667 1221.333 1586.5 1232 1613.5 C 1242.667 1640.5 1253.333 1664.167 1264 1684.5 C 1274.667 1704.833 1280 1719.333 1280 1728 C 1280 1745.333 1273.667 1760.333 1261 1773 C 1248.333 1785.667 1233.333 1792 1216 1792 L 704 1792 C 686.667 1792 671.667 1785.667 659 1773 C 646.333 1760.333 640 1745.333 640 1728 C 640 1718.667 645.333 1704 656 1684 C 666.667 1664 677.333 1640.667 688 1614 C 698.667 1587.333 704 1561.333 704 1536 L 160 1536 C 116 1536 78.333 1520.333 47 1489 C 15.667 1457.667 0 1420 0 1376 L 0 288 C 0 244 15.667 206.333 47 175 C 78.333 143.667 116 128 160 128 L 1760 128 C 1804 128 1841.667 143.667 1873 175 C 1904.333 206.333 1920 244 1920 288 Z" stroke-opacity="0" stroke-miterlimit="10"/></g></g></g><g transform="translate(0,0) matrix(1,0,0,1,633.7027542439118,143.90103615340337) scale(0.028209702379091497,0.024982818776632533) translate(0,-128)"><g transform="translate(0,0) scale(1,1)"><g><path fill="#fff" stroke="rgb(0,0,0)" d="M 1792 1120 L 1792 288 C 1792 279.333 1788.833 271.833 1782.5 265.5 C 1776.167 259.167 1768.667 256 1760 256 L 160 256 C 151.333 256 143.833 259.167 137.5 265.5 C 131.167 271.833 128 279.333 128 288 L 128 1120 C 128 1128.667 131.167 1136.167 137.5 1142.5 C 143.833 1148.833 151.333 1152 160 1152 L 1760 1152 C 1768.667 1152 1776.167 1148.833 1782.5 1142.5 C 1788.833 1136.167 1792 1128.667 1792 1120 Z M 1920 288 L 1920 1376 C 1920 1420 1904.333 1457.667 1873 1489 C 1841.667 1520.333 1804 1536 1760 1536 L 1216 1536 C 1216 1560.667 1221.333 1586.5 1232 1613.5 C 1242.667 1640.5 1253.333 1664.167 1264 1684.5 C 1274.667 1704.833 1280 1719.333 1280 1728 C 1280 1745.333 1273.667 1760.333 1261 1773 C 1248.333 1785.667 1233.333 1792 1216 1792 L 704 1792 C 686.667 1792 671.667 1785.667 659 1773 C 646.333 1760.333 640 1745.333 640 1728 C 640 1718.667 645.333 1704 656 1684 C 666.667 1664 677.333 1640.667 688 1614 C 698.667 1587.333 704 1561.333 704 1536 L 160 1536 C 116 1536 78.333 1520.333 47 1489 C 15.667 1457.667 0 1420 0 1376 L 0 288 C 0 244 15.667 206.333 47 175 C 78.333 143.667 116 128 160 128 L 1760 128 C 1804 128 1841.667 143.667 1873 175 C 1904.333 206.333 1920 244 1920 288 Z" stroke-opacity="0" stroke-miterlimit="10"/></g></g></g><g transform="translate(0,0) matrix(1,0,0,1,843.1315847062872,143.90103615340337) scale(0.028209702379091497,0.024982818776632533) translate(0,-128)"><g transform="translate(0,0) scale(1,1)"><g><path fill="#fff" stroke="rgb(0,0,0)" d="M 1792 1120 L 1792 288 C 1792 279.333 1788.833 271.833 1782.5 265.5 C 1776.167 259.167 1768.667 256 1760 256 L 160 256 C 151.333 256 143.833 259.167 137.5 265.5 C 131.167 271.833 128 279.333 128 288 L 128 1120 C 128 1128.667 131.167 1136.167 137.5 1142.5 C 143.833 1148.833 151.333 1152 160 1152 L 1760 1152 C 1768.667 1152 1776.167 1148.833 1782.5 1142.5 C 1788.833 1136.167 1792 1128.667 1792 1120 Z M 1920 288 L 1920 1376 C 1920 1420 1904.333 1457.667 1873 1489 C 1841.667 1520.333 1804 1536 1760 1536 L 1216 1536 C 1216 1560.667 1221.333 1586.5 1232 1613.5 C 1242.667 1640.5 1253.333 1664.167 1264 1684.5 C 1274.667 1704.833 1280 1719.333 1280 1728 C 1280 1745.333 1273.667 1760.333 1261 1773 C 1248.333 1785.667 1233.333 1792 1216 1792 L 704 1792 C 686.667 1792 671.667 1785.667 659 1773 C 646.333 1760.333 640 1745.333 640 1728 C 640 1718.667 645.333 1704 656 1684 C 666.667 1664 677.333 1640.667 688 1614 C 698.667 1587.333 704 1561.333 704 1536 L 160 1536 C 116 1536 78.333 1520.333 47 1489 C 15.667 1457.667 0 1420 0 1376 L 0 288 C 0 244 15.667 206.333 47 175 C 78.333 143.667 116 128 160 128 L 1760 128 C 1804 128 1841.667 143.667 1873 175 C 1904.333 206.333 1920 244 1920 288 Z" stroke-opacity="0" stroke-miterlimit="10"/></g></g></g><g transform="translate(0,0) matrix(1,0,0,1,698.6979085253387,148.6977373585168) scale(0.028209702379091497,0.024982818776632533) translate(64,-256)"><g transform="translate(0,0) scale(1,1)"><g><path fill="#fff" stroke="rgb(0,0,0)" d="M 352 1280 Q 286 1280 239 1233 Q 192 1186 192 1120 L 192 416 Q 192 350 239 303 Q 286 256 352 256 L 1440 256 Q 1506 256 1553 303 Q 1600 350 1600 416 L 1600 1120 Q 1600 1186 1553 1233 Q 1506 1280 1440 1280 L 352 1280 Z M 320 416 L 320 1120 Q 320 1133 329.5 1142.5 Q 339 1152 352 1152 L 1440 1152 Q 1453 1152 1462.5 1142.5 Q 1472 1133 1472 1120 L 1472 416 Q 1472 403 1462.5 393.5 Q 1453 384 1440 384 L 352 384 Q 339 384 329.5 393.5 Q 320 403 320 416 Z M 1696 1344 L 1856 1344 L 1856 1440 Q 1856 1480 1809 1508 Q 1762 1536 1696 1536 L 96 1536 Q 30 1536 -17 1508 Q -64 1480 -64 1440 L -64 1344 L 1696 1344 Z M 976 1440 Q 992 1440 992 1424 Q 992 1408 976 1408 L 816 1408 Q 800 1408 800 1424 Q 800 1440 816 1440 L 976 1440 Z" stroke-opacity="0" stroke-miterlimit="10"/></g></g></g><g transform="translate(0,0) matrix(1,0,0,1,763.6930628067655,147.09883695681233) scale(0.028209702379091497,0.024982818776632523) translate(-320,-128)"><g transform="translate(0,0) scale(1,1)"><g><path fill="#fff" stroke="rgb(0,0,0)" d="M 960 1408 Q 960 1382 941 1363 Q 922 1344 896 1344 Q 870 1344 851 1363 Q 832 1382 832 1408 Q 832 1434 851 1453 Q 870 1472 896 1472 Q 922 1472 941 1453 Q 960 1434 960 1408 Z M 1344 1248 L 1344 288 Q 1344 275 1334.5 265.5 Q 1325 256 1312 256 L 480 256 Q 467 256 457.5 265.5 Q 448 275 448 288 L 448 1248 Q 448 1261 457.5 1270.5 Q 467 1280 480 1280 L 1312 1280 Q 1325 1280 1334.5 1270.5 Q 1344 1261 1344 1248 Z M 1472 288 L 1472 1376 Q 1472 1442 1425 1489 Q 1378 1536 1312 1536 L 480 1536 Q 414 1536 367 1489 Q 320 1442 320 1376 L 320 288 Q 320 222 367 175 Q 414 128 480 128 L 1312 128 Q 1378 128 1425 175 Q 1472 222 1472 288 Z" stroke-opacity="0" stroke-miterlimit="10"/></g></g></g><g transform="translate(0,0) matrix(1,0,0,1,809.8790133491734,148.6977373585168) scale(0.0282097023790915,0.024982818776632533) translate(-512,-256)"><g transform="translate(0,0) scale(1,1)"><g><path fill="#fff" stroke="rgb(0,0,0)" d="M 976 1408 Q 976 1375 952.5 1351.5 Q 929 1328 896 1328 Q 863 1328 839.5 1351.5 Q 816 1375 816 1408 Q 816 1441 839.5 1464.5 Q 863 1488 896 1488 Q 929 1488 952.5 1464.5 Q 976 1441 976 1408 Z M 1184 1248 L 1184 544 Q 1184 531 1174.5 521.5 Q 1165 512 1152 512 L 640 512 Q 627 512 617.5 521.5 Q 608 531 608 544 L 608 1248 Q 608 1261 617.5 1270.5 Q 627 1280 640 1280 L 1152 1280 Q 1165 1280 1174.5 1270.5 Q 1184 1261 1184 1248 Z M 992 400 Q 992 384 976 384 L 816 384 Q 800 384 800 400 Q 800 416 816 416 L 976 416 Q 992 416 992 400 Z M 1280 384 L 1280 1408 Q 1280 1460 1242 1498 Q 1204 1536 1152 1536 L 640 1536 Q 588 1536 550 1498 Q 512 1460 512 1408 L 512 384 Q 512 332 550 294 Q 588 256 640 256 L 1152 256 Q 1204 256 1242 294 Q 1280 332 1280 384 Z" stroke-opacity="0" stroke-miterlimit="10"/></g></g></g><g transform="translate(0,0) matrix(1,0,0,1,626.4810704348645,4.796701205113445) scale(0.028209702379091497,0.024982818776632533) translate(64,-256)"><g transform="translate(0,0) scale(1,1)"><g><path fill="#fff" stroke="rgb(0,0,0)" d="M 352 1280 Q 286 1280 239 1233 Q 192 1186 192 1120 L 192 416 Q 192 350 239 303 Q 286 256 352 256 L 1440 256 Q 1506 256 1553 303 Q 1600 350 1600 416 L 1600 1120 Q 1600 1186 1553 1233 Q 1506 1280 1440 1280 L 352 1280 Z M 320 416 L 320 1120 Q 320 1133 329.5 1142.5 Q 339 1152 352 1152 L 1440 1152 Q 1453 1152 1462.5 1142.5 Q 1472 1133 1472 1120 L 1472 416 Q 1472 403 1462.5 393.5 Q 1453 384 1440 384 L 352 384 Q 339 384 329.5 393.5 Q 320 403 320 416 Z M 1696 1344 L 1856 1344 L 1856 1440 Q 1856 1480 1809 1508 Q 1762 1536 1696 1536 L 96 1536 Q 30 1536 -17 1508 Q -64 1480 -64 1440 L -64 1344 L 1696 1344 Z M 976 1440 Q 992 1440 992 1424 Q 992 1408 976 1408 L 816 1408 Q 800 1408 800 1424 Q 800 1440 816 1440 L 976 1440 Z" stroke-opacity="0" stroke-miterlimit="10"/></g></g></g><g transform="translate(0,0) matrix(1,0,0,1,691.4762247162912,3.1978008034089638) scale(0.028209702379091497,0.024982818776632523) translate(-320,-128)"><g transform="translate(0,0) scale(1,1)"><g><path fill="#fff" stroke="rgb(0,0,0)" d="M 960 1408 Q 960 1382 941 1363 Q 922 1344 896 1344 Q 870 1344 851 1363 Q 832 1382 832 1408 Q 832 1434 851 1453 Q 870 1472 896 1472 Q 922 1472 941 1453 Q 960 1434 960 1408 Z M 1344 1248 L 1344 288 Q 1344 275 1334.5 265.5 Q 1325 256 1312 256 L 480 256 Q 467 256 457.5 265.5 Q 448 275 448 288 L 448 1248 Q 448 1261 457.5 1270.5 Q 467 1280 480 1280 L 1312 1280 Q 1325 1280 1334.5 1270.5 Q 1344 1261 1344 1248 Z M 1472 288 L 1472 1376 Q 1472 1442 1425 1489 Q 1378 1536 1312 1536 L 480 1536 Q 414 1536 367 1489 Q 320 1442 320 1376 L 320 288 Q 320 222 367 175 Q 414 128 480 128 L 1312 128 Q 1378 128 1425 175 Q 1472 222 1472 288 Z" stroke-opacity="0" stroke-miterlimit="10"/></g></g></g><g transform="translate(0,0) matrix(1,0,0,1,737.6621752586991,4.796701205113445) scale(0.0282097023790915,0.024982818776632533) translate(-512,-256)"><g transform="translate(0,0) scale(1,1)"><g><path fill="#fff" stroke="rgb(0,0,0)" d="M 976 1408 Q 976 1375 952.5 1351.5 Q 929 1328 896 1328 Q 863 1328 839.5 1351.5 Q 816 1375 816 1408 Q 816 1441 839.5 1464.5 Q 863 1488 896 1488 Q 929 1488 952.5 1464.5 Q 976 1441 976 1408 Z M 1184 1248 L 1184 544 Q 1184 531 1174.5 521.5 Q 1165 512 1152 512 L 640 512 Q 627 512 617.5 521.5 Q 608 531 608 544 L 608 1248 Q 608 1261 617.5 1270.5 Q 627 1280 640 1280 L 1152 1280 Q 1165 1280 1174.5 1270.5 Q 1184 1261 1184 1248 Z M 992 400 Q 992 384 976 384 L 816 384 Q 800 384 800 400 Q 800 416 816 416 L 976 416 Q 992 416 992 400 Z M 1280 384 L 1280 1408 Q 1280 1460 1242 1498 Q 1204 1536 1152 1536 L 640 1536 Q 588 1536 550 1498 Q 512 1460 512 1408 L 512 384 Q 512 332 550 294 Q 588 256 640 256 L 1152 256 Q 1204 256 1242 294 Q 1280 332 1280 384 Z" stroke-opacity="0" stroke-miterlimit="10"/></g></g></g><g transform="translate(0,0) matrix(1,0,0,1,561.4859161534376,0) scale(0.028209702379091497,0.024982818776632533) translate(0,-128)"><g transform="translate(0,0) scale(1,1)"><g><path fill="#fff" stroke="rgb(0,0,0)" d="M 1792 1120 L 1792 288 C 1792 279.333 1788.833 271.833 1782.5 265.5 C 1776.167 259.167 1768.667 256 1760 256 L 160 256 C 151.333 256 143.833 259.167 137.5 265.5 C 131.167 271.833 128 279.333 128 288 L 128 1120 C 128 1128.667 131.167 1136.167 137.5 1142.5 C 143.833 1148.833 151.333 1152 160 1152 L 1760 1152 C 1768.667 1152 1776.167 1148.833 1782.5 1142.5 C 1788.833 1136.167 1792 1128.667 1792 1120 Z M 1920 288 L 1920 1376 C 1920 1420 1904.333 1457.667 1873 1489 C 1841.667 1520.333 1804 1536 1760 1536 L 1216 1536 C 1216 1560.667 1221.333 1586.5 1232 1613.5 C 1242.667 1640.5 1253.333 1664.167 1264 1684.5 C 1274.667 1704.833 1280 1719.333 1280 1728 C 1280 1745.333 1273.667 1760.333 1261 1773 C 1248.333 1785.667 1233.333 1792 1216 1792 L 704 1792 C 686.667 1792 671.667 1785.667 659 1773 C 646.333 1760.333 640 1745.333 640 1728 C 640 1718.667 645.333 1704 656 1684 C 666.667 1664 677.333 1640.667 688 1614 C 698.667 1587.333 704 1561.333 704 1536 L 160 1536 C 116 1536 78.333 1520.333 47 1489 C 15.667 1457.667 0 1420 0 1376 L 0 288 C 0 244 15.667 206.333 47 175 C 78.333 143.667 116 128 160 128 L 1760 128 C 1804 128 1841.667 143.667 1873 175 C 1904.333 206.333 1920 244 1920 288 Z" stroke-opacity="0" stroke-miterlimit="10"/></g></g></g><g transform="translate(0,0) matrix(1,0,0,1,521.7666552036768,47.96701205113445) scale(0.028209702379091497,0.024982818776632533) translate(0,-128)"><g transform="translate(0,0) scale(1,1)"><g><path fill="#fff" stroke="rgb(0,0,0)" d="M 1792 1120 L 1792 288 C 1792 279.333 1788.833 271.833 1782.5 265.5 C 1776.167 259.167 1768.667 256 1760 256 L 160 256 C 151.333 256 143.833 259.167 137.5 265.5 C 131.167 271.833 128 279.333 128 288 L 128 1120 C 128 1128.667 131.167 1136.167 137.5 1142.5 C 143.833 1148.833 151.333 1152 160 1152 L 1760 1152 C 1768.667 1152 1776.167 1148.833 1782.5 1142.5 C 1788.833 1136.167 1792 1128.667 1792 1120 Z M 1920 288 L 1920 1376 C 1920 1420 1904.333 1457.667 1873 1489 C 1841.667 1520.333 1804 1536 1760 1536 L 1216 1536 C 1216 1560.667 1221.333 1586.5 1232 1613.5 C 1242.667 1640.5 1253.333 1664.167 1264 1684.5 C 1274.667 1704.833 1280 1719.333 1280 1728 C 1280 1745.333 1273.667 1760.333 1261 1773 C 1248.333 1785.667 1233.333 1792 1216 1792 L 704 1792 C 686.667 1792 671.667 1785.667 659 1773 C 646.333 1760.333 640 1745.333 640 1728 C 640 1718.667 645.333 1704 656 1684 C 666.667 1664 677.333 1640.667 688 1614 C 698.667 1587.333 704 1561.333 704 1536 L 160 1536 C 116 1536 78.333 1520.333 47 1489 C 15.667 1457.667 0 1420 0 1376 L 0 288 C 0 244 15.667 206.333 47 175 C 78.333 143.667 116 128 160 128 L 1760 128 C 1804 128 1841.667 143.667 1873 175 C 1904.333 206.333 1920 244 1920 288 Z" stroke-opacity="0" stroke-miterlimit="10"/></g></g></g><g transform="translate(0,0) matrix(1,0,0,1,586.7618094851036,52.7637132562479) scale(0.028209702379091497,0.024982818776632533) translate(64,-256)"><g transform="translate(0,0) scale(1,1)"><g><path fill="#fff" stroke="rgb(0,0,0)" d="M 352 1280 Q 286 1280 239 1233 Q 192 1186 192 1120 L 192 416 Q 192 350 239 303 Q 286 256 352 256 L 1440 256 Q 1506 256 1553 303 Q 1600 350 1600 416 L 1600 1120 Q 1600 1186 1553 1233 Q 1506 1280 1440 1280 L 352 1280 Z M 320 416 L 320 1120 Q 320 1133 329.5 1142.5 Q 339 1152 352 1152 L 1440 1152 Q 1453 1152 1462.5 1142.5 Q 1472 1133 1472 1120 L 1472 416 Q 1472 403 1462.5 393.5 Q 1453 384 1440 384 L 352 384 Q 339 384 329.5 393.5 Q 320 403 320 416 Z M 1696 1344 L 1856 1344 L 1856 1440 Q 1856 1480 1809 1508 Q 1762 1536 1696 1536 L 96 1536 Q 30 1536 -17 1508 Q -64 1480 -64 1440 L -64 1344 L 1696 1344 Z M 976 1440 Q 992 1440 992 1424 Q 992 1408 976 1408 L 816 1408 Q 800 1408 800 1424 Q 800 1440 816 1440 L 976 1440 Z" stroke-opacity="0" stroke-miterlimit="10"/></g></g></g><g transform="translate(0,0) matrix(1,0,0,1,651.7569637665305,51.16481285454342) scale(0.028209702379091497,0.024982818776632523) translate(-320,-128)"><g transform="translate(0,0) scale(1,1)"><g><path fill="#fff" stroke="rgb(0,0,0)" d="M 960 1408 Q 960 1382 941 1363 Q 922 1344 896 1344 Q 870 1344 851 1363 Q 832 1382 832 1408 Q 832 1434 851 1453 Q 870 1472 896 1472 Q 922 1472 941 1453 Q 960 1434 960 1408 Z M 1344 1248 L 1344 288 Q 1344 275 1334.5 265.5 Q 1325 256 1312 256 L 480 256 Q 467 256 457.5 265.5 Q 448 275 448 288 L 448 1248 Q 448 1261 457.5 1270.5 Q 467 1280 480 1280 L 1312 1280 Q 1325 1280 1334.5 1270.5 Q 1344 1261 1344 1248 Z M 1472 288 L 1472 1376 Q 1472 1442 1425 1489 Q 1378 1536 1312 1536 L 480 1536 Q 414 1536 367 1489 Q 320 1442 320 1376 L 320 288 Q 320 222 367 175 Q 414 128 480 128 L 1312 128 Q 1378 128 1425 175 Q 1472 222 1472 288 Z" stroke-opacity="0" stroke-miterlimit="10"/></g></g></g><g transform="translate(0,0) matrix(1,0,0,1,697.9429143089383,52.7637132562479) scale(0.0282097023790915,0.024982818776632533) translate(-512,-256)"><g transform="translate(0,0) scale(1,1)"><g><path fill="#fff" stroke="rgb(0,0,0)" d="M 976 1408 Q 976 1375 952.5 1351.5 Q 929 1328 896 1328 Q 863 1328 839.5 1351.5 Q 816 1375 816 1408 Q 816 1441 839.5 1464.5 Q 863 1488 896 1488 Q 929 1488 952.5 1464.5 Q 976 1441 976 1408 Z M 1184 1248 L 1184 544 Q 1184 531 1174.5 521.5 Q 1165 512 1152 512 L 640 512 Q 627 512 617.5 521.5 Q 608 531 608 544 L 608 1248 Q 608 1261 617.5 1270.5 Q 627 1280 640 1280 L 1152 1280 Q 1165 1280 1174.5 1270.5 Q 1184 1261 1184 1248 Z M 992 400 Q 992 384 976 384 L 816 384 Q 800 384 800 400 Q 800 416 816 416 L 976 416 Q 992 416 992 400 Z M 1280 384 L 1280 1408 Q 1280 1460 1242 1498 Q 1204 1536 1152 1536 L 640 1536 Q 588 1536 550 1498 Q 512 1460 512 1408 L 512 384 Q 512 332 550 294 Q 588 256 640 256 L 1152 256 Q 1204 256 1242 294 Q 1280 332 1280 384 Z" stroke-opacity="0" stroke-miterlimit="10"/></g></g></g><g transform="translate(0,0) matrix(1,0,0,1,527.1829180604624,100.73072530738234) scale(0.028209702379091497,0.024982818776632533) translate(64,-256)"><g transform="translate(0,0) scale(1,1)"><g><path fill="#fff" stroke="rgb(0,0,0)" d="M 352 1280 Q 286 1280 239 1233 Q 192 1186 192 1120 L 192 416 Q 192 350 239 303 Q 286 256 352 256 L 1440 256 Q 1506 256 1553 303 Q 1600 350 1600 416 L 1600 1120 Q 1600 1186 1553 1233 Q 1506 1280 1440 1280 L 352 1280 Z M 320 416 L 320 1120 Q 320 1133 329.5 1142.5 Q 339 1152 352 1152 L 1440 1152 Q 1453 1152 1462.5 1142.5 Q 1472 1133 1472 1120 L 1472 416 Q 1472 403 1462.5 393.5 Q 1453 384 1440 384 L 352 384 Q 339 384 329.5 393.5 Q 320 403 320 416 Z M 1696 1344 L 1856 1344 L 1856 1440 Q 1856 1480 1809 1508 Q 1762 1536 1696 1536 L 96 1536 Q 30 1536 -17 1508 Q -64 1480 -64 1440 L -64 1344 L 1696 1344 Z M 976 1440 Q 992 1440 992 1424 Q 992 1408 976 1408 L 816 1408 Q 800 1408 800 1424 Q 800 1440 816 1440 L 976 1440 Z" stroke-opacity="0" stroke-miterlimit="10"/></g></g></g><g transform="translate(0,0) matrix(1,0,0,1,592.1780723418892,99.13182490567789) scale(0.028209702379091497,0.024982818776632523) translate(-320,-128)"><g transform="translate(0,0) scale(1,1)"><g><path fill="#fff" stroke="rgb(0,0,0)" d="M 960 1408 Q 960 1382 941 1363 Q 922 1344 896 1344 Q 870 1344 851 1363 Q 832 1382 832 1408 Q 832 1434 851 1453 Q 870 1472 896 1472 Q 922 1472 941 1453 Q 960 1434 960 1408 Z M 1344 1248 L 1344 288 Q 1344 275 1334.5 265.5 Q 1325 256 1312 256 L 480 256 Q 467 256 457.5 265.5 Q 448 275 448 288 L 448 1248 Q 448 1261 457.5 1270.5 Q 467 1280 480 1280 L 1312 1280 Q 1325 1280 1334.5 1270.5 Q 1344 1261 1344 1248 Z M 1472 288 L 1472 1376 Q 1472 1442 1425 1489 Q 1378 1536 1312 1536 L 480 1536 Q 414 1536 367 1489 Q 320 1442 320 1376 L 320 288 Q 320 222 367 175 Q 414 128 480 128 L 1312 128 Q 1378 128 1425 175 Q 1472 222 1472 288 Z" stroke-opacity="0" stroke-miterlimit="10"/></g></g></g><g transform="translate(0,0) matrix(1,0,0,1,638.364022884297,100.73072530738234) scale(0.0282097023790915,0.024982818776632533) translate(-512,-256)"><g transform="translate(0,0) scale(1,1)"><g><path fill="#fff" stroke="rgb(0,0,0)" d="M 976 1408 Q 976 1375 952.5 1351.5 Q 929 1328 896 1328 Q 863 1328 839.5 1351.5 Q 816 1375 816 1408 Q 816 1441 839.5 1464.5 Q 863 1488 896 1488 Q 929 1488 952.5 1464.5 Q 976 1441 976 1408 Z M 1184 1248 L 1184 544 Q 1184 531 1174.5 521.5 Q 1165 512 1152 512 L 640 512 Q 627 512 617.5 521.5 Q 608 531 608 544 L 608 1248 Q 608 1261 617.5 1270.5 Q 627 1280 640 1280 L 1152 1280 Q 1165 1280 1174.5 1270.5 Q 1184 1261 1184 1248 Z M 992 400 Q 992 384 976 384 L 816 384 Q 800 384 800 400 Q 800 416 816 416 L 976 416 Q 992 416 992 400 Z M 1280 384 L 1280 1408 Q 1280 1460 1242 1498 Q 1204 1536 1152 1536 L 640 1536 Q 588 1536 550 1498 Q 512 1460 512 1408 L 512 384 Q 512 332 550 294 Q 588 256 640 256 L 1152 256 Q 1204 256 1242 294 Q 1280 332 1280 384 Z" stroke-opacity="0" stroke-miterlimit="10"/></g></g></g><g transform="translate(0,0) matrix(1,0,0,1,462.18776377903555,95.9340241022689) scale(0.028209702379091497,0.024982818776632533) translate(0,-128)"><g transform="translate(0,0) scale(1,1)"><g><path fill="#fff" stroke="rgb(0,0,0)" d="M 1792 1120 L 1792 288 C 1792 279.333 1788.833 271.833 1782.5 265.5 C 1776.167 259.167 1768.667 256 1760 256 L 160 256 C 151.333 256 143.833 259.167 137.5 265.5 C 131.167 271.833 128 279.333 128 288 L 128 1120 C 128 1128.667 131.167 1136.167 137.5 1142.5 C 143.833 1148.833 151.333 1152 160 1152 L 1760 1152 C 1768.667 1152 1776.167 1148.833 1782.5 1142.5 C 1788.833 1136.167 1792 1128.667 1792 1120 Z M 1920 288 L 1920 1376 C 1920 1420 1904.333 1457.667 1873 1489 C 1841.667 1520.333 1804 1536 1760 1536 L 1216 1536 C 1216 1560.667 1221.333 1586.5 1232 1613.5 C 1242.667 1640.5 1253.333 1664.167 1264 1684.5 C 1274.667 1704.833 1280 1719.333 1280 1728 C 1280 1745.333 1273.667 1760.333 1261 1773 C 1248.333 1785.667 1233.333 1792 1216 1792 L 704 1792 C 686.667 1792 671.667 1785.667 659 1773 C 646.333 1760.333 640 1745.333 640 1728 C 640 1718.667 645.333 1704 656 1684 C 666.667 1664 677.333 1640.667 688 1614 C 698.667 1587.333 704 1561.333 704 1536 L 160 1536 C 116 1536 78.333 1520.333 47 1489 C 15.667 1457.667 0 1420 0 1376 L 0 288 C 0 244 15.667 206.333 47 175 C 78.333 143.667 116 128 160 128 L 1760 128 C 1804 128 1841.667 143.667 1873 175 C 1904.333 206.333 1920 244 1920 288 Z" stroke-opacity="0" stroke-miterlimit="10"/></g></g></g><g transform="translate(0,0) matrix(1,0,0,1,422.4685028292747,143.90103615340337) scale(0.028209702379091497,0.024982818776632533) translate(0,-128)"><g transform="translate(0,0) scale(1,1)"><g><path fill="#fff" stroke="rgb(0,0,0)" d="M 1792 1120 L 1792 288 C 1792 279.333 1788.833 271.833 1782.5 265.5 C 1776.167 259.167 1768.667 256 1760 256 L 160 256 C 151.333 256 143.833 259.167 137.5 265.5 C 131.167 271.833 128 279.333 128 288 L 128 1120 C 128 1128.667 131.167 1136.167 137.5 1142.5 C 143.833 1148.833 151.333 1152 160 1152 L 1760 1152 C 1768.667 1152 1776.167 1148.833 1782.5 1142.5 C 1788.833 1136.167 1792 1128.667 1792 1120 Z M 1920 288 L 1920 1376 C 1920 1420 1904.333 1457.667 1873 1489 C 1841.667 1520.333 1804 1536 1760 1536 L 1216 1536 C 1216 1560.667 1221.333 1586.5 1232 1613.5 C 1242.667 1640.5 1253.333 1664.167 1264 1684.5 C 1274.667 1704.833 1280 1719.333 1280 1728 C 1280 1745.333 1273.667 1760.333 1261 1773 C 1248.333 1785.667 1233.333 1792 1216 1792 L 704 1792 C 686.667 1792 671.667 1785.667 659 1773 C 646.333 1760.333 640 1745.333 640 1728 C 640 1718.667 645.333 1704 656 1684 C 666.667 1664 677.333 1640.667 688 1614 C 698.667 1587.333 704 1561.333 704 1536 L 160 1536 C 116 1536 78.333 1520.333 47 1489 C 15.667 1457.667 0 1420 0 1376 L 0 288 C 0 244 15.667 206.333 47 175 C 78.333 143.667 116 128 160 128 L 1760 128 C 1804 128 1841.667 143.667 1873 175 C 1904.333 206.333 1920 244 1920 288 Z" stroke-opacity="0" stroke-miterlimit="10"/></g></g></g><g transform="translate(0,0) matrix(1,0,0,1,487.46365711070155,148.6977373585168) scale(0.028209702379091497,0.024982818776632533) translate(64,-256)"><g transform="translate(0,0) scale(1,1)"><g><path fill="#fff" stroke="rgb(0,0,0)" d="M 352 1280 Q 286 1280 239 1233 Q 192 1186 192 1120 L 192 416 Q 192 350 239 303 Q 286 256 352 256 L 1440 256 Q 1506 256 1553 303 Q 1600 350 1600 416 L 1600 1120 Q 1600 1186 1553 1233 Q 1506 1280 1440 1280 L 352 1280 Z M 320 416 L 320 1120 Q 320 1133 329.5 1142.5 Q 339 1152 352 1152 L 1440 1152 Q 1453 1152 1462.5 1142.5 Q 1472 1133 1472 1120 L 1472 416 Q 1472 403 1462.5 393.5 Q 1453 384 1440 384 L 352 384 Q 339 384 329.5 393.5 Q 320 403 320 416 Z M 1696 1344 L 1856 1344 L 1856 1440 Q 1856 1480 1809 1508 Q 1762 1536 1696 1536 L 96 1536 Q 30 1536 -17 1508 Q -64 1480 -64 1440 L -64 1344 L 1696 1344 Z M 976 1440 Q 992 1440 992 1424 Q 992 1408 976 1408 L 816 1408 Q 800 1408 800 1424 Q 800 1440 816 1440 L 976 1440 Z" stroke-opacity="0" stroke-miterlimit="10"/></g></g></g><g transform="translate(0,0) matrix(1,0,0,1,552.4588113921284,147.09883695681236) scale(0.028209702379091497,0.024982818776632523) translate(-320,-128)"><g transform="translate(0,0) scale(1,1)"><g><path fill="#fff" stroke="rgb(0,0,0)" d="M 960 1408 Q 960 1382 941 1363 Q 922 1344 896 1344 Q 870 1344 851 1363 Q 832 1382 832 1408 Q 832 1434 851 1453 Q 870 1472 896 1472 Q 922 1472 941 1453 Q 960 1434 960 1408 Z M 1344 1248 L 1344 288 Q 1344 275 1334.5 265.5 Q 1325 256 1312 256 L 480 256 Q 467 256 457.5 265.5 Q 448 275 448 288 L 448 1248 Q 448 1261 457.5 1270.5 Q 467 1280 480 1280 L 1312 1280 Q 1325 1280 1334.5 1270.5 Q 1344 1261 1344 1248 Z M 1472 288 L 1472 1376 Q 1472 1442 1425 1489 Q 1378 1536 1312 1536 L 480 1536 Q 414 1536 367 1489 Q 320 1442 320 1376 L 320 288 Q 320 222 367 175 Q 414 128 480 128 L 1312 128 Q 1378 128 1425 175 Q 1472 222 1472 288 Z" stroke-opacity="0" stroke-miterlimit="10"/></g></g></g><g transform="translate(0,0) matrix(1,0,0,1,598.6447619345362,148.6977373585168) scale(0.0282097023790915,0.024982818776632533) translate(-512,-256)"><g transform="translate(0,0) scale(1,1)"><g><path fill="#fff" stroke="rgb(0,0,0)" d="M 976 1408 Q 976 1375 952.5 1351.5 Q 929 1328 896 1328 Q 863 1328 839.5 1351.5 Q 816 1375 816 1408 Q 816 1441 839.5 1464.5 Q 863 1488 896 1488 Q 929 1488 952.5 1464.5 Q 976 1441 976 1408 Z M 1184 1248 L 1184 544 Q 1184 531 1174.5 521.5 Q 1165 512 1152 512 L 640 512 Q 627 512 617.5 521.5 Q 608 531 608 544 L 608 1248 Q 608 1261 617.5 1270.5 Q 627 1280 640 1280 L 1152 1280 Q 1165 1280 1174.5 1270.5 Q 1184 1261 1184 1248 Z M 992 400 Q 992 384 976 384 L 816 384 Q 800 384 800 400 Q 800 416 816 416 L 976 416 Q 992 416 992 400 Z M 1280 384 L 1280 1408 Q 1280 1460 1242 1498 Q 1204 1536 1152 1536 L 640 1536 Q 588 1536 550 1498 Q 512 1460 512 1408 L 512 384 Q 512 332 550 294 Q 588 256 640 256 L 1152 256 Q 1204 256 1242 294 Q 1280 332 1280 384 Z" stroke-opacity="0" stroke-miterlimit="10"/></g></g></g><g transform="translate(0,0) matrix(1,0,0,1,415.2468190202269,4.796701205113421) scale(0.028209702379091497,0.024982818776632533) translate(64,-256)"><g transform="translate(0,0) scale(1,1)"><g><path fill="#fff" stroke="rgb(0,0,0)" d="M 352 1280 Q 286 1280 239 1233 Q 192 1186 192 1120 L 192 416 Q 192 350 239 303 Q 286 256 352 256 L 1440 256 Q 1506 256 1553 303 Q 1600 350 1600 416 L 1600 1120 Q 1600 1186 1553 1233 Q 1506 1280 1440 1280 L 352 1280 Z M 320 416 L 320 1120 Q 320 1133 329.5 1142.5 Q 339 1152 352 1152 L 1440 1152 Q 1453 1152 1462.5 1142.5 Q 1472 1133 1472 1120 L 1472 416 Q 1472 403 1462.5 393.5 Q 1453 384 1440 384 L 352 384 Q 339 384 329.5 393.5 Q 320 403 320 416 Z M 1696 1344 L 1856 1344 L 1856 1440 Q 1856 1480 1809 1508 Q 1762 1536 1696 1536 L 96 1536 Q 30 1536 -17 1508 Q -64 1480 -64 1440 L -64 1344 L 1696 1344 Z M 976 1440 Q 992 1440 992 1424 Q 992 1408 976 1408 L 816 1408 Q 800 1408 800 1424 Q 800 1440 816 1440 L 976 1440 Z" stroke-opacity="0" stroke-miterlimit="10"/></g></g></g><g transform="translate(0,0) matrix(1,0,0,1,480.24197330165345,3.1978008034088803) scale(0.028209702379091497,0.024982818776632523) translate(-320,-128)"><g transform="translate(0,0) scale(1,1)"><g><path fill="#fff" stroke="rgb(0,0,0)" d="M 960 1408 Q 960 1382 941 1363 Q 922 1344 896 1344 Q 870 1344 851 1363 Q 832 1382 832 1408 Q 832 1434 851 1453 Q 870 1472 896 1472 Q 922 1472 941 1453 Q 960 1434 960 1408 Z M 1344 1248 L 1344 288 Q 1344 275 1334.5 265.5 Q 1325 256 1312 256 L 480 256 Q 467 256 457.5 265.5 Q 448 275 448 288 L 448 1248 Q 448 1261 457.5 1270.5 Q 467 1280 480 1280 L 1312 1280 Q 1325 1280 1334.5 1270.5 Q 1344 1261 1344 1248 Z M 1472 288 L 1472 1376 Q 1472 1442 1425 1489 Q 1378 1536 1312 1536 L 480 1536 Q 414 1536 367 1489 Q 320 1442 320 1376 L 320 288 Q 320 222 367 175 Q 414 128 480 128 L 1312 128 Q 1378 128 1425 175 Q 1472 222 1472 288 Z" stroke-opacity="0" stroke-miterlimit="10"/></g></g></g><g transform="translate(0,0) matrix(1,0,0,1,526.4279238440615,4.796701205113421) scale(0.0282097023790915,0.024982818776632533) translate(-512,-256)"><g transform="translate(0,0) scale(1,1)"><g><path fill="#fff" stroke="rgb(0,0,0)" d="M 976 1408 Q 976 1375 952.5 1351.5 Q 929 1328 896 1328 Q 863 1328 839.5 1351.5 Q 816 1375 816 1408 Q 816 1441 839.5 1464.5 Q 863 1488 896 1488 Q 929 1488 952.5 1464.5 Q 976 1441 976 1408 Z M 1184 1248 L 1184 544 Q 1184 531 1174.5 521.5 Q 1165 512 1152 512 L 640 512 Q 627 512 617.5 521.5 Q 608 531 608 544 L 608 1248 Q 608 1261 617.5 1270.5 Q 627 1280 640 1280 L 1152 1280 Q 1165 1280 1174.5 1270.5 Q 1184 1261 1184 1248 Z M 992 400 Q 992 384 976 384 L 816 384 Q 800 384 800 400 Q 800 416 816 416 L 976 416 Q 992 416 992 400 Z M 1280 384 L 1280 1408 Q 1280 1460 1242 1498 Q 1204 1536 1152 1536 L 640 1536 Q 588 1536 550 1498 Q 512 1460 512 1408 L 512 384 Q 512 332 550 294 Q 588 256 640 256 L 1152 256 Q 1204 256 1242 294 Q 1280 332 1280 384 Z" stroke-opacity="0" stroke-miterlimit="10"/></g></g></g><g transform="translate(0,0) matrix(1,0,0,1,350.2516647388002,0) scale(0.028209702379091497,0.024982818776632533) translate(0,-128)"><g transform="translate(0,0) scale(1,1)"><g><path fill="#fff" stroke="rgb(0,0,0)" d="M 1792 1120 L 1792 288 C 1792 279.333 1788.833 271.833 1782.5 265.5 C 1776.167 259.167 1768.667 256 1760 256 L 160 256 C 151.333 256 143.833 259.167 137.5 265.5 C 131.167 271.833 128 279.333 128 288 L 128 1120 C 128 1128.667 131.167 1136.167 137.5 1142.5 C 143.833 1148.833 151.333 1152 160 1152 L 1760 1152 C 1768.667 1152 1776.167 1148.833 1782.5 1142.5 C 1788.833 1136.167 1792 1128.667 1792 1120 Z M 1920 288 L 1920 1376 C 1920 1420 1904.333 1457.667 1873 1489 C 1841.667 1520.333 1804 1536 1760 1536 L 1216 1536 C 1216 1560.667 1221.333 1586.5 1232 1613.5 C 1242.667 1640.5 1253.333 1664.167 1264 1684.5 C 1274.667 1704.833 1280 1719.333 1280 1728 C 1280 1745.333 1273.667 1760.333 1261 1773 C 1248.333 1785.667 1233.333 1792 1216 1792 L 704 1792 C 686.667 1792 671.667 1785.667 659 1773 C 646.333 1760.333 640 1745.333 640 1728 C 640 1718.667 645.333 1704 656 1684 C 666.667 1664 677.333 1640.667 688 1614 C 698.667 1587.333 704 1561.333 704 1536 L 160 1536 C 116 1536 78.333 1520.333 47 1489 C 15.667 1457.667 0 1420 0 1376 L 0 288 C 0 244 15.667 206.333 47 175 C 78.333 143.667 116 128 160 128 L 1760 128 C 1804 128 1841.667 143.667 1873 175 C 1904.333 206.333 1920 244 1920 288 Z" stroke-opacity="0" stroke-miterlimit="10"/></g></g></g><g transform="translate(0,0) matrix(1,0,0,1,310.5324037890392,47.967012051134425) scale(0.028209702379091497,0.024982818776632533) translate(0,-128)"><g transform="translate(0,0) scale(1,1)"><g><path fill="#fff" stroke="rgb(0,0,0)" d="M 1792 1120 L 1792 288 C 1792 279.333 1788.833 271.833 1782.5 265.5 C 1776.167 259.167 1768.667 256 1760 256 L 160 256 C 151.333 256 143.833 259.167 137.5 265.5 C 131.167 271.833 128 279.333 128 288 L 128 1120 C 128 1128.667 131.167 1136.167 137.5 1142.5 C 143.833 1148.833 151.333 1152 160 1152 L 1760 1152 C 1768.667 1152 1776.167 1148.833 1782.5 1142.5 C 1788.833 1136.167 1792 1128.667 1792 1120 Z M 1920 288 L 1920 1376 C 1920 1420 1904.333 1457.667 1873 1489 C 1841.667 1520.333 1804 1536 1760 1536 L 1216 1536 C 1216 1560.667 1221.333 1586.5 1232 1613.5 C 1242.667 1640.5 1253.333 1664.167 1264 1684.5 C 1274.667 1704.833 1280 1719.333 1280 1728 C 1280 1745.333 1273.667 1760.333 1261 1773 C 1248.333 1785.667 1233.333 1792 1216 1792 L 704 1792 C 686.667 1792 671.667 1785.667 659 1773 C 646.333 1760.333 640 1745.333 640 1728 C 640 1718.667 645.333 1704 656 1684 C 666.667 1664 677.333 1640.667 688 1614 C 698.667 1587.333 704 1561.333 704 1536 L 160 1536 C 116 1536 78.333 1520.333 47 1489 C 15.667 1457.667 0 1420 0 1376 L 0 288 C 0 244 15.667 206.333 47 175 C 78.333 143.667 116 128 160 128 L 1760 128 C 1804 128 1841.667 143.667 1873 175 C 1904.333 206.333 1920 244 1920 288 Z" stroke-opacity="0" stroke-miterlimit="10"/></g></g></g><g transform="translate(0,0) matrix(1,0,0,1,375.5275580704659,52.76371325624784) scale(0.028209702379091497,0.024982818776632533) translate(64,-256)"><g transform="translate(0,0) scale(1,1)"><g><path fill="#fff" stroke="rgb(0,0,0)" d="M 352 1280 Q 286 1280 239 1233 Q 192 1186 192 1120 L 192 416 Q 192 350 239 303 Q 286 256 352 256 L 1440 256 Q 1506 256 1553 303 Q 1600 350 1600 416 L 1600 1120 Q 1600 1186 1553 1233 Q 1506 1280 1440 1280 L 352 1280 Z M 320 416 L 320 1120 Q 320 1133 329.5 1142.5 Q 339 1152 352 1152 L 1440 1152 Q 1453 1152 1462.5 1142.5 Q 1472 1133 1472 1120 L 1472 416 Q 1472 403 1462.5 393.5 Q 1453 384 1440 384 L 352 384 Q 339 384 329.5 393.5 Q 320 403 320 416 Z M 1696 1344 L 1856 1344 L 1856 1440 Q 1856 1480 1809 1508 Q 1762 1536 1696 1536 L 96 1536 Q 30 1536 -17 1508 Q -64 1480 -64 1440 L -64 1344 L 1696 1344 Z M 976 1440 Q 992 1440 992 1424 Q 992 1408 976 1408 L 816 1408 Q 800 1408 800 1424 Q 800 1440 816 1440 L 976 1440 Z" stroke-opacity="0" stroke-miterlimit="10"/></g></g></g><g transform="translate(0,0) matrix(1,0,0,1,440.52271235189255,51.1648128545433) scale(0.028209702379091497,0.024982818776632523) translate(-320,-128)"><g transform="translate(0,0) scale(1,1)"><g><path fill="#fff" stroke="rgb(0,0,0)" d="M 960 1408 Q 960 1382 941 1363 Q 922 1344 896 1344 Q 870 1344 851 1363 Q 832 1382 832 1408 Q 832 1434 851 1453 Q 870 1472 896 1472 Q 922 1472 941 1453 Q 960 1434 960 1408 Z M 1344 1248 L 1344 288 Q 1344 275 1334.5 265.5 Q 1325 256 1312 256 L 480 256 Q 467 256 457.5 265.5 Q 448 275 448 288 L 448 1248 Q 448 1261 457.5 1270.5 Q 467 1280 480 1280 L 1312 1280 Q 1325 1280 1334.5 1270.5 Q 1344 1261 1344 1248 Z M 1472 288 L 1472 1376 Q 1472 1442 1425 1489 Q 1378 1536 1312 1536 L 480 1536 Q 414 1536 367 1489 Q 320 1442 320 1376 L 320 288 Q 320 222 367 175 Q 414 128 480 128 L 1312 128 Q 1378 128 1425 175 Q 1472 222 1472 288 Z" stroke-opacity="0" stroke-miterlimit="10"/></g></g></g><g transform="translate(0,0) matrix(1,0,0,1,486.70866289430063,52.76371325624784) scale(0.0282097023790915,0.024982818776632533) translate(-512,-256)"><g transform="translate(0,0) scale(1,1)"><g><path fill="#fff" stroke="rgb(0,0,0)" d="M 976 1408 Q 976 1375 952.5 1351.5 Q 929 1328 896 1328 Q 863 1328 839.5 1351.5 Q 816 1375 816 1408 Q 816 1441 839.5 1464.5 Q 863 1488 896 1488 Q 929 1488 952.5 1464.5 Q 976 1441 976 1408 Z M 1184 1248 L 1184 544 Q 1184 531 1174.5 521.5 Q 1165 512 1152 512 L 640 512 Q 627 512 617.5 521.5 Q 608 531 608 544 L 608 1248 Q 608 1261 617.5 1270.5 Q 627 1280 640 1280 L 1152 1280 Q 1165 1280 1174.5 1270.5 Q 1184 1261 1184 1248 Z M 992 400 Q 992 384 976 384 L 816 384 Q 800 384 800 400 Q 800 416 816 416 L 976 416 Q 992 416 992 400 Z M 1280 384 L 1280 1408 Q 1280 1460 1242 1498 Q 1204 1536 1152 1536 L 640 1536 Q 588 1536 550 1498 Q 512 1460 512 1408 L 512 384 Q 512 332 550 294 Q 588 256 640 256 L 1152 256 Q 1204 256 1242 294 Q 1280 332 1280 384 Z" stroke-opacity="0" stroke-miterlimit="10"/></g></g></g><g transform="translate(0,0) matrix(1,0,0,1,315.9486666458247,100.73072530738226) scale(0.028209702379091497,0.024982818776632533) translate(64,-256)"><g transform="translate(0,0) scale(1,1)"><g><path fill="#fff" stroke="rgb(0,0,0)" d="M 352 1280 Q 286 1280 239 1233 Q 192 1186 192 1120 L 192 416 Q 192 350 239 303 Q 286 256 352 256 L 1440 256 Q 1506 256 1553 303 Q 1600 350 1600 416 L 1600 1120 Q 1600 1186 1553 1233 Q 1506 1280 1440 1280 L 352 1280 Z M 320 416 L 320 1120 Q 320 1133 329.5 1142.5 Q 339 1152 352 1152 L 1440 1152 Q 1453 1152 1462.5 1142.5 Q 1472 1133 1472 1120 L 1472 416 Q 1472 403 1462.5 393.5 Q 1453 384 1440 384 L 352 384 Q 339 384 329.5 393.5 Q 320 403 320 416 Z M 1696 1344 L 1856 1344 L 1856 1440 Q 1856 1480 1809 1508 Q 1762 1536 1696 1536 L 96 1536 Q 30 1536 -17 1508 Q -64 1480 -64 1440 L -64 1344 L 1696 1344 Z M 976 1440 Q 992 1440 992 1424 Q 992 1408 976 1408 L 816 1408 Q 800 1408 800 1424 Q 800 1440 816 1440 L 976 1440 Z" stroke-opacity="0" stroke-miterlimit="10"/></g></g></g><g transform="translate(0,0) matrix(1,0,0,1,380.94382092725135,99.13182490567772) scale(0.028209702379091497,0.024982818776632523) translate(-320,-128)"><g transform="translate(0,0) scale(1,1)"><g><path fill="#fff" stroke="rgb(0,0,0)" d="M 960 1408 Q 960 1382 941 1363 Q 922 1344 896 1344 Q 870 1344 851 1363 Q 832 1382 832 1408 Q 832 1434 851 1453 Q 870 1472 896 1472 Q 922 1472 941 1453 Q 960 1434 960 1408 Z M 1344 1248 L 1344 288 Q 1344 275 1334.5 265.5 Q 1325 256 1312 256 L 480 256 Q 467 256 457.5 265.5 Q 448 275 448 288 L 448 1248 Q 448 1261 457.5 1270.5 Q 467 1280 480 1280 L 1312 1280 Q 1325 1280 1334.5 1270.5 Q 1344 1261 1344 1248 Z M 1472 288 L 1472 1376 Q 1472 1442 1425 1489 Q 1378 1536 1312 1536 L 480 1536 Q 414 1536 367 1489 Q 320 1442 320 1376 L 320 288 Q 320 222 367 175 Q 414 128 480 128 L 1312 128 Q 1378 128 1425 175 Q 1472 222 1472 288 Z" stroke-opacity="0" stroke-miterlimit="10"/></g></g></g><g transform="translate(0,0) matrix(1,0,0,1,427.12977146965943,100.73072530738226) scale(0.0282097023790915,0.024982818776632533) translate(-512,-256)"><g transform="translate(0,0) scale(1,1)"><g><path fill="#fff" stroke="rgb(0,0,0)" d="M 976 1408 Q 976 1375 952.5 1351.5 Q 929 1328 896 1328 Q 863 1328 839.5 1351.5 Q 816 1375 816 1408 Q 816 1441 839.5 1464.5 Q 863 1488 896 1488 Q 929 1488 952.5 1464.5 Q 976 1441 976 1408 Z M 1184 1248 L 1184 544 Q 1184 531 1174.5 521.5 Q 1165 512 1152 512 L 640 512 Q 627 512 617.5 521.5 Q 608 531 608 544 L 608 1248 Q 608 1261 617.5 1270.5 Q 627 1280 640 1280 L 1152 1280 Q 1165 1280 1174.5 1270.5 Q 1184 1261 1184 1248 Z M 992 400 Q 992 384 976 384 L 816 384 Q 800 384 800 400 Q 800 416 816 416 L 976 416 Q 992 416 992 400 Z M 1280 384 L 1280 1408 Q 1280 1460 1242 1498 Q 1204 1536 1152 1536 L 640 1536 Q 588 1536 550 1498 Q 512 1460 512 1408 L 512 384 Q 512 332 550 294 Q 588 256 640 256 L 1152 256 Q 1204 256 1242 294 Q 1280 332 1280 384 Z" stroke-opacity="0" stroke-miterlimit="10"/></g></g></g><g transform="translate(0,0) matrix(1,0,0,1,250.95351236439805,95.93402410226885) scale(0.028209702379091497,0.024982818776632533) translate(0,-128)"><g transform="translate(0,0) scale(1,1)"><g><path fill="#fff" stroke="rgb(0,0,0)" d="M 1792 1120 L 1792 288 C 1792 279.333 1788.833 271.833 1782.5 265.5 C 1776.167 259.167 1768.667 256 1760 256 L 160 256 C 151.333 256 143.833 259.167 137.5 265.5 C 131.167 271.833 128 279.333 128 288 L 128 1120 C 128 1128.667 131.167 1136.167 137.5 1142.5 C 143.833 1148.833 151.333 1152 160 1152 L 1760 1152 C 1768.667 1152 1776.167 1148.833 1782.5 1142.5 C 1788.833 1136.167 1792 1128.667 1792 1120 Z M 1920 288 L 1920 1376 C 1920 1420 1904.333 1457.667 1873 1489 C 1841.667 1520.333 1804 1536 1760 1536 L 1216 1536 C 1216 1560.667 1221.333 1586.5 1232 1613.5 C 1242.667 1640.5 1253.333 1664.167 1264 1684.5 C 1274.667 1704.833 1280 1719.333 1280 1728 C 1280 1745.333 1273.667 1760.333 1261 1773 C 1248.333 1785.667 1233.333 1792 1216 1792 L 704 1792 C 686.667 1792 671.667 1785.667 659 1773 C 646.333 1760.333 640 1745.333 640 1728 C 640 1718.667 645.333 1704 656 1684 C 666.667 1664 677.333 1640.667 688 1614 C 698.667 1587.333 704 1561.333 704 1536 L 160 1536 C 116 1536 78.333 1520.333 47 1489 C 15.667 1457.667 0 1420 0 1376 L 0 288 C 0 244 15.667 206.333 47 175 C 78.333 143.667 116 128 160 128 L 1760 128 C 1804 128 1841.667 143.667 1873 175 C 1904.333 206.333 1920 244 1920 288 Z" stroke-opacity="0" stroke-miterlimit="10"/></g></g></g><g transform="translate(0,0) matrix(1,0,0,1,211.23425141463713,143.90103615340345) scale(0.028209702379091497,0.024982818776632533) translate(0,-128)"><g transform="translate(0,0) scale(1,1)"><g><path fill="#fff" stroke="rgb(0,0,0)" d="M 1792 1120 L 1792 288 C 1792 279.333 1788.833 271.833 1782.5 265.5 C 1776.167 259.167 1768.667 256 1760 256 L 160 256 C 151.333 256 143.833 259.167 137.5 265.5 C 131.167 271.833 128 279.333 128 288 L 128 1120 C 128 1128.667 131.167 1136.167 137.5 1142.5 C 143.833 1148.833 151.333 1152 160 1152 L 1760 1152 C 1768.667 1152 1776.167 1148.833 1782.5 1142.5 C 1788.833 1136.167 1792 1128.667 1792 1120 Z M 1920 288 L 1920 1376 C 1920 1420 1904.333 1457.667 1873 1489 C 1841.667 1520.333 1804 1536 1760 1536 L 1216 1536 C 1216 1560.667 1221.333 1586.5 1232 1613.5 C 1242.667 1640.5 1253.333 1664.167 1264 1684.5 C 1274.667 1704.833 1280 1719.333 1280 1728 C 1280 1745.333 1273.667 1760.333 1261 1773 C 1248.333 1785.667 1233.333 1792 1216 1792 L 704 1792 C 686.667 1792 671.667 1785.667 659 1773 C 646.333 1760.333 640 1745.333 640 1728 C 640 1718.667 645.333 1704 656 1684 C 666.667 1664 677.333 1640.667 688 1614 C 698.667 1587.333 704 1561.333 704 1536 L 160 1536 C 116 1536 78.333 1520.333 47 1489 C 15.667 1457.667 0 1420 0 1376 L 0 288 C 0 244 15.667 206.333 47 175 C 78.333 143.667 116 128 160 128 L 1760 128 C 1804 128 1841.667 143.667 1873 175 C 1904.333 206.333 1920 244 1920 288 Z" stroke-opacity="0" stroke-miterlimit="10"/></g></g></g><g transform="translate(0,0) matrix(1,0,0,1,276.2294056960638,148.6977373585169) scale(0.028209702379091497,0.024982818776632533) translate(64,-256)"><g transform="translate(0,0) scale(1,1)"><g><path fill="#fff" stroke="rgb(0,0,0)" d="M 352 1280 Q 286 1280 239 1233 Q 192 1186 192 1120 L 192 416 Q 192 350 239 303 Q 286 256 352 256 L 1440 256 Q 1506 256 1553 303 Q 1600 350 1600 416 L 1600 1120 Q 1600 1186 1553 1233 Q 1506 1280 1440 1280 L 352 1280 Z M 320 416 L 320 1120 Q 320 1133 329.5 1142.5 Q 339 1152 352 1152 L 1440 1152 Q 1453 1152 1462.5 1142.5 Q 1472 1133 1472 1120 L 1472 416 Q 1472 403 1462.5 393.5 Q 1453 384 1440 384 L 352 384 Q 339 384 329.5 393.5 Q 320 403 320 416 Z M 1696 1344 L 1856 1344 L 1856 1440 Q 1856 1480 1809 1508 Q 1762 1536 1696 1536 L 96 1536 Q 30 1536 -17 1508 Q -64 1480 -64 1440 L -64 1344 L 1696 1344 Z M 976 1440 Q 992 1440 992 1424 Q 992 1408 976 1408 L 816 1408 Q 800 1408 800 1424 Q 800 1440 816 1440 L 976 1440 Z" stroke-opacity="0" stroke-miterlimit="10"/></g></g></g><g transform="translate(0,0) matrix(1,0,0,1,341.2245599774904,147.09883695681233) scale(0.028209702379091497,0.024982818776632523) translate(-320,-128)"><g transform="translate(0,0) scale(1,1)"><g><path fill="#fff" stroke="rgb(0,0,0)" d="M 960 1408 Q 960 1382 941 1363 Q 922 1344 896 1344 Q 870 1344 851 1363 Q 832 1382 832 1408 Q 832 1434 851 1453 Q 870 1472 896 1472 Q 922 1472 941 1453 Q 960 1434 960 1408 Z M 1344 1248 L 1344 288 Q 1344 275 1334.5 265.5 Q 1325 256 1312 256 L 480 256 Q 467 256 457.5 265.5 Q 448 275 448 288 L 448 1248 Q 448 1261 457.5 1270.5 Q 467 1280 480 1280 L 1312 1280 Q 1325 1280 1334.5 1270.5 Q 1344 1261 1344 1248 Z M 1472 288 L 1472 1376 Q 1472 1442 1425 1489 Q 1378 1536 1312 1536 L 480 1536 Q 414 1536 367 1489 Q 320 1442 320 1376 L 320 288 Q 320 222 367 175 Q 414 128 480 128 L 1312 128 Q 1378 128 1425 175 Q 1472 222 1472 288 Z" stroke-opacity="0" stroke-miterlimit="10"/></g></g></g><g transform="translate(0,0) matrix(1,0,0,1,387.4105105198984,148.6977373585169) scale(0.0282097023790915,0.024982818776632533) translate(-512,-256)"><g transform="translate(0,0) scale(1,1)"><g><path fill="#fff" stroke="rgb(0,0,0)" d="M 976 1408 Q 976 1375 952.5 1351.5 Q 929 1328 896 1328 Q 863 1328 839.5 1351.5 Q 816 1375 816 1408 Q 816 1441 839.5 1464.5 Q 863 1488 896 1488 Q 929 1488 952.5 1464.5 Q 976 1441 976 1408 Z M 1184 1248 L 1184 544 Q 1184 531 1174.5 521.5 Q 1165 512 1152 512 L 640 512 Q 627 512 617.5 521.5 Q 608 531 608 544 L 608 1248 Q 608 1261 617.5 1270.5 Q 627 1280 640 1280 L 1152 1280 Q 1165 1280 1174.5 1270.5 Q 1184 1261 1184 1248 Z M 992 400 Q 992 384 976 384 L 816 384 Q 800 384 800 400 Q 800 416 816 416 L 976 416 Q 992 416 992 400 Z M 1280 384 L 1280 1408 Q 1280 1460 1242 1498 Q 1204 1536 1152 1536 L 640 1536 Q 588 1536 550 1498 Q 512 1460 512 1408 L 512 384 Q 512 332 550 294 Q 588 256 640 256 L 1152 256 Q 1204 256 1242 294 Q 1280 332 1280 384 Z" stroke-opacity="0" stroke-miterlimit="10"/></g></g></g><g transform="translate(0,0) matrix(1,0,0,1,202.73236002125864,4.796701205113421) scale(0.028209702379091497,0.024982818776632533) translate(64,-256)"><g transform="translate(0,0) scale(1,1)"><g><path fill="#fff" stroke="rgb(0,0,0)" d="M 352 1280 Q 286 1280 239 1233 Q 192 1186 192 1120 L 192 416 Q 192 350 239 303 Q 286 256 352 256 L 1440 256 Q 1506 256 1553 303 Q 1600 350 1600 416 L 1600 1120 Q 1600 1186 1553 1233 Q 1506 1280 1440 1280 L 352 1280 Z M 320 416 L 320 1120 Q 320 1133 329.5 1142.5 Q 339 1152 352 1152 L 1440 1152 Q 1453 1152 1462.5 1142.5 Q 1472 1133 1472 1120 L 1472 416 Q 1472 403 1462.5 393.5 Q 1453 384 1440 384 L 352 384 Q 339 384 329.5 393.5 Q 320 403 320 416 Z M 1696 1344 L 1856 1344 L 1856 1440 Q 1856 1480 1809 1508 Q 1762 1536 1696 1536 L 96 1536 Q 30 1536 -17 1508 Q -64 1480 -64 1440 L -64 1344 L 1696 1344 Z M 976 1440 Q 992 1440 992 1424 Q 992 1408 976 1408 L 816 1408 Q 800 1408 800 1424 Q 800 1440 816 1440 L 976 1440 Z" stroke-opacity="0" stroke-miterlimit="10"/></g></g></g><g transform="translate(0,0) matrix(1,0,0,1,269.0077218870164,3.1978008034088803) scale(0.028209702379091497,0.024982818776632523) translate(-320,-128)"><g transform="translate(0,0) scale(1,1)"><g><path fill="#fff" stroke="rgb(0,0,0)" d="M 960 1408 Q 960 1382 941 1363 Q 922 1344 896 1344 Q 870 1344 851 1363 Q 832 1382 832 1408 Q 832 1434 851 1453 Q 870 1472 896 1472 Q 922 1472 941 1453 Q 960 1434 960 1408 Z M 1344 1248 L 1344 288 Q 1344 275 1334.5 265.5 Q 1325 256 1312 256 L 480 256 Q 467 256 457.5 265.5 Q 448 275 448 288 L 448 1248 Q 448 1261 457.5 1270.5 Q 467 1280 480 1280 L 1312 1280 Q 1325 1280 1334.5 1270.5 Q 1344 1261 1344 1248 Z M 1472 288 L 1472 1376 Q 1472 1442 1425 1489 Q 1378 1536 1312 1536 L 480 1536 Q 414 1536 367 1489 Q 320 1442 320 1376 L 320 288 Q 320 222 367 175 Q 414 128 480 128 L 1312 128 Q 1378 128 1425 175 Q 1472 222 1472 288 Z" stroke-opacity="0" stroke-miterlimit="10"/></g></g></g><g transform="translate(0,0) matrix(1,0,0,1,311.5828305249009,3.1978008034088803) scale(0.0282097023790915,0.024982818776632533) translate(-512,-256)"><g transform="translate(0,0) scale(1,1)"><g><path fill="#fff" stroke="rgb(0,0,0)" d="M 976 1408 Q 976 1375 952.5 1351.5 Q 929 1328 896 1328 Q 863 1328 839.5 1351.5 Q 816 1375 816 1408 Q 816 1441 839.5 1464.5 Q 863 1488 896 1488 Q 929 1488 952.5 1464.5 Q 976 1441 976 1408 Z M 1184 1248 L 1184 544 Q 1184 531 1174.5 521.5 Q 1165 512 1152 512 L 640 512 Q 627 512 617.5 521.5 Q 608 531 608 544 L 608 1248 Q 608 1261 617.5 1270.5 Q 627 1280 640 1280 L 1152 1280 Q 1165 1280 1174.5 1270.5 Q 1184 1261 1184 1248 Z M 992 400 Q 992 384 976 384 L 816 384 Q 800 384 800 400 Q 800 416 816 416 L 976 416 Q 992 416 992 400 Z M 1280 384 L 1280 1408 Q 1280 1460 1242 1498 Q 1204 1536 1152 1536 L 640 1536 Q 588 1536 550 1498 Q 512 1460 512 1408 L 512 384 Q 512 332 550 294 Q 588 256 640 256 L 1152 256 Q 1204 256 1242 294 Q 1280 332 1280 384 Z" stroke-opacity="0" stroke-miterlimit="10"/></g></g></g><g transform="translate(0,0) matrix(1,0,0,1,139.0174133241631,0) scale(0.028209702379091497,0.024982818776632533) translate(0,-128)"><g transform="translate(0,0) scale(1,1)"><g><path fill="#fff" stroke="rgb(0,0,0)" d="M 1792 1120 L 1792 288 C 1792 279.333 1788.833 271.833 1782.5 265.5 C 1776.167 259.167 1768.667 256 1760 256 L 160 256 C 151.333 256 143.833 259.167 137.5 265.5 C 131.167 271.833 128 279.333 128 288 L 128 1120 C 128 1128.667 131.167 1136.167 137.5 1142.5 C 143.833 1148.833 151.333 1152 160 1152 L 1760 1152 C 1768.667 1152 1776.167 1148.833 1782.5 1142.5 C 1788.833 1136.167 1792 1128.667 1792 1120 Z M 1920 288 L 1920 1376 C 1920 1420 1904.333 1457.667 1873 1489 C 1841.667 1520.333 1804 1536 1760 1536 L 1216 1536 C 1216 1560.667 1221.333 1586.5 1232 1613.5 C 1242.667 1640.5 1253.333 1664.167 1264 1684.5 C 1274.667 1704.833 1280 1719.333 1280 1728 C 1280 1745.333 1273.667 1760.333 1261 1773 C 1248.333 1785.667 1233.333 1792 1216 1792 L 704 1792 C 686.667 1792 671.667 1785.667 659 1773 C 646.333 1760.333 640 1745.333 640 1728 C 640 1718.667 645.333 1704 656 1684 C 666.667 1664 677.333 1640.667 688 1614 C 698.667 1587.333 704 1561.333 704 1536 L 160 1536 C 116 1536 78.333 1520.333 47 1489 C 15.667 1457.667 0 1420 0 1376 L 0 288 C 0 244 15.667 206.333 47 175 C 78.333 143.667 116 128 160 128 L 1760 128 C 1804 128 1841.667 143.667 1873 175 C 1904.333 206.333 1920 244 1920 288 Z" stroke-opacity="0" stroke-miterlimit="10"/></g></g></g><g transform="translate(0,0) matrix(1,0,0,1,99.29815237440214,47.967012051134425) scale(0.028209702379091497,0.024982818776632533) translate(0,-128)"><g transform="translate(0,0) scale(1,1)"><g><path fill="#fff" stroke="rgb(0,0,0)" d="M 1792 1120 L 1792 288 C 1792 279.333 1788.833 271.833 1782.5 265.5 C 1776.167 259.167 1768.667 256 1760 256 L 160 256 C 151.333 256 143.833 259.167 137.5 265.5 C 131.167 271.833 128 279.333 128 288 L 128 1120 C 128 1128.667 131.167 1136.167 137.5 1142.5 C 143.833 1148.833 151.333 1152 160 1152 L 1760 1152 C 1768.667 1152 1776.167 1148.833 1782.5 1142.5 C 1788.833 1136.167 1792 1128.667 1792 1120 Z M 1920 288 L 1920 1376 C 1920 1420 1904.333 1457.667 1873 1489 C 1841.667 1520.333 1804 1536 1760 1536 L 1216 1536 C 1216 1560.667 1221.333 1586.5 1232 1613.5 C 1242.667 1640.5 1253.333 1664.167 1264 1684.5 C 1274.667 1704.833 1280 1719.333 1280 1728 C 1280 1745.333 1273.667 1760.333 1261 1773 C 1248.333 1785.667 1233.333 1792 1216 1792 L 704 1792 C 686.667 1792 671.667 1785.667 659 1773 C 646.333 1760.333 640 1745.333 640 1728 C 640 1718.667 645.333 1704 656 1684 C 666.667 1664 677.333 1640.667 688 1614 C 698.667 1587.333 704 1561.333 704 1536 L 160 1536 C 116 1536 78.333 1520.333 47 1489 C 15.667 1457.667 0 1420 0 1376 L 0 288 C 0 244 15.667 206.333 47 175 C 78.333 143.667 116 128 160 128 L 1760 128 C 1804 128 1841.667 143.667 1873 175 C 1904.333 206.333 1920 244 1920 288 Z" stroke-opacity="0" stroke-miterlimit="10"/></g></g></g><g transform="translate(0,0) matrix(1,0,0,1,164.29330665582876,52.76371325624784) scale(0.028209702379091497,0.024982818776632533) translate(64,-256)"><g transform="translate(0,0) scale(1,1)"><g><path fill="#fff" stroke="rgb(0,0,0)" d="M 352 1280 Q 286 1280 239 1233 Q 192 1186 192 1120 L 192 416 Q 192 350 239 303 Q 286 256 352 256 L 1440 256 Q 1506 256 1553 303 Q 1600 350 1600 416 L 1600 1120 Q 1600 1186 1553 1233 Q 1506 1280 1440 1280 L 352 1280 Z M 320 416 L 320 1120 Q 320 1133 329.5 1142.5 Q 339 1152 352 1152 L 1440 1152 Q 1453 1152 1462.5 1142.5 Q 1472 1133 1472 1120 L 1472 416 Q 1472 403 1462.5 393.5 Q 1453 384 1440 384 L 352 384 Q 339 384 329.5 393.5 Q 320 403 320 416 Z M 1696 1344 L 1856 1344 L 1856 1440 Q 1856 1480 1809 1508 Q 1762 1536 1696 1536 L 96 1536 Q 30 1536 -17 1508 Q -64 1480 -64 1440 L -64 1344 L 1696 1344 Z M 976 1440 Q 992 1440 992 1424 Q 992 1408 976 1408 L 816 1408 Q 800 1408 800 1424 Q 800 1440 816 1440 L 976 1440 Z" stroke-opacity="0" stroke-miterlimit="10"/></g></g></g><g transform="translate(0,0) matrix(1,0,0,1,229.28846093725588,51.164812854543506) scale(0.028209702379091497,0.024982818776632523) translate(-320,-128)"><g transform="translate(0,0) scale(1,1)"><g><path fill="#fff" stroke="rgb(0,0,0)" d="M 960 1408 Q 960 1382 941 1363 Q 922 1344 896 1344 Q 870 1344 851 1363 Q 832 1382 832 1408 Q 832 1434 851 1453 Q 870 1472 896 1472 Q 922 1472 941 1453 Q 960 1434 960 1408 Z M 1344 1248 L 1344 288 Q 1344 275 1334.5 265.5 Q 1325 256 1312 256 L 480 256 Q 467 256 457.5 265.5 Q 448 275 448 288 L 448 1248 Q 448 1261 457.5 1270.5 Q 467 1280 480 1280 L 1312 1280 Q 1325 1280 1334.5 1270.5 Q 1344 1261 1344 1248 Z M 1472 288 L 1472 1376 Q 1472 1442 1425 1489 Q 1378 1536 1312 1536 L 480 1536 Q 414 1536 367 1489 Q 320 1442 320 1376 L 320 288 Q 320 222 367 175 Q 414 128 480 128 L 1312 128 Q 1378 128 1425 175 Q 1472 222 1472 288 Z" stroke-opacity="0" stroke-miterlimit="10"/></g></g></g><g transform="translate(0,0) matrix(1,0,0,1,271.86356957514,51.1648128545433) scale(0.0282097023790915,0.024982818776632533) translate(-512,-256)"><g transform="translate(0,0) scale(1,1)"><g><path fill="#fff" stroke="rgb(0,0,0)" d="M 976 1408 Q 976 1375 952.5 1351.5 Q 929 1328 896 1328 Q 863 1328 839.5 1351.5 Q 816 1375 816 1408 Q 816 1441 839.5 1464.5 Q 863 1488 896 1488 Q 929 1488 952.5 1464.5 Q 976 1441 976 1408 Z M 1184 1248 L 1184 544 Q 1184 531 1174.5 521.5 Q 1165 512 1152 512 L 640 512 Q 627 512 617.5 521.5 Q 608 531 608 544 L 608 1248 Q 608 1261 617.5 1270.5 Q 627 1280 640 1280 L 1152 1280 Q 1165 1280 1174.5 1270.5 Q 1184 1261 1184 1248 Z M 992 400 Q 992 384 976 384 L 816 384 Q 800 384 800 400 Q 800 416 816 416 L 976 416 Q 992 416 992 400 Z M 1280 384 L 1280 1408 Q 1280 1460 1242 1498 Q 1204 1536 1152 1536 L 640 1536 Q 588 1536 550 1498 Q 512 1460 512 1408 L 512 384 Q 512 332 550 294 Q 588 256 640 256 L 1152 256 Q 1204 256 1242 294 Q 1280 332 1280 384 Z" stroke-opacity="0" stroke-miterlimit="10"/></g></g></g><g transform="translate(0,0) matrix(1,0,0,1,104.71441523118762,100.73072530738226) scale(0.028209702379091497,0.024982818776632533) translate(64,-256)"><g transform="translate(0,0) scale(1,1)"><g><path fill="#fff" stroke="rgb(0,0,0)" d="M 352 1280 Q 286 1280 239 1233 Q 192 1186 192 1120 L 192 416 Q 192 350 239 303 Q 286 256 352 256 L 1440 256 Q 1506 256 1553 303 Q 1600 350 1600 416 L 1600 1120 Q 1600 1186 1553 1233 Q 1506 1280 1440 1280 L 352 1280 Z M 320 416 L 320 1120 Q 320 1133 329.5 1142.5 Q 339 1152 352 1152 L 1440 1152 Q 1453 1152 1462.5 1142.5 Q 1472 1133 1472 1120 L 1472 416 Q 1472 403 1462.5 393.5 Q 1453 384 1440 384 L 352 384 Q 339 384 329.5 393.5 Q 320 403 320 416 Z M 1696 1344 L 1856 1344 L 1856 1440 Q 1856 1480 1809 1508 Q 1762 1536 1696 1536 L 96 1536 Q 30 1536 -17 1508 Q -64 1480 -64 1440 L -64 1344 L 1696 1344 Z M 976 1440 Q 992 1440 992 1424 Q 992 1408 976 1408 L 816 1408 Q 800 1408 800 1424 Q 800 1440 816 1440 L 976 1440 Z" stroke-opacity="0" stroke-miterlimit="10"/></g></g></g><g transform="translate(0,0) matrix(1,0,0,1,166.09872760809117,97.53292450397338) scale(0.028209702379091497,0.024982818776632523) translate(-320,-128)"><g transform="translate(0,0) scale(1,1)"><g><path fill="#fff" stroke="rgb(0,0,0)" d="M 960 1408 Q 960 1382 941 1363 Q 922 1344 896 1344 Q 870 1344 851 1363 Q 832 1382 832 1408 Q 832 1434 851 1453 Q 870 1472 896 1472 Q 922 1472 941 1453 Q 960 1434 960 1408 Z M 1344 1248 L 1344 288 Q 1344 275 1334.5 265.5 Q 1325 256 1312 256 L 480 256 Q 467 256 457.5 265.5 Q 448 275 448 288 L 448 1248 Q 448 1261 457.5 1270.5 Q 467 1280 480 1280 L 1312 1280 Q 1325 1280 1334.5 1270.5 Q 1344 1261 1344 1248 Z M 1472 288 L 1472 1376 Q 1472 1442 1425 1489 Q 1378 1536 1312 1536 L 480 1536 Q 414 1536 367 1489 Q 320 1442 320 1376 L 320 288 Q 320 222 367 175 Q 414 128 480 128 L 1312 128 Q 1378 128 1425 175 Q 1472 222 1472 288 Z" stroke-opacity="0" stroke-miterlimit="10"/></g></g></g><g transform="translate(0,0) matrix(1,0,0,1,212.28467815049876,99.13182490567772) scale(0.0282097023790915,0.024982818776632533) translate(-512,-256)"><g transform="translate(0,0) scale(1,1)"><g><path fill="#fff" stroke="rgb(0,0,0)" d="M 976 1408 Q 976 1375 952.5 1351.5 Q 929 1328 896 1328 Q 863 1328 839.5 1351.5 Q 816 1375 816 1408 Q 816 1441 839.5 1464.5 Q 863 1488 896 1488 Q 929 1488 952.5 1464.5 Q 976 1441 976 1408 Z M 1184 1248 L 1184 544 Q 1184 531 1174.5 521.5 Q 1165 512 1152 512 L 640 512 Q 627 512 617.5 521.5 Q 608 531 608 544 L 608 1248 Q 608 1261 617.5 1270.5 Q 627 1280 640 1280 L 1152 1280 Q 1165 1280 1174.5 1270.5 Q 1184 1261 1184 1248 Z M 992 400 Q 992 384 976 384 L 816 384 Q 800 384 800 400 Q 800 416 816 416 L 976 416 Q 992 416 992 400 Z M 1280 384 L 1280 1408 Q 1280 1460 1242 1498 Q 1204 1536 1152 1536 L 640 1536 Q 588 1536 550 1498 Q 512 1460 512 1408 L 512 384 Q 512 332 550 294 Q 588 256 640 256 L 1152 256 Q 1204 256 1242 294 Q 1280 332 1280 384 Z" stroke-opacity="0" stroke-miterlimit="10"/></g></g></g><g transform="translate(0,0) matrix(1,0,0,1,39.71926094976094,95.93402410226885) scale(0.028209702379091497,0.024982818776632533) translate(0,-128)"><g transform="translate(0,0) scale(1,1)"><g><path fill="#fff" stroke="rgb(0,0,0)" d="M 1792 1120 L 1792 288 C 1792 279.333 1788.833 271.833 1782.5 265.5 C 1776.167 259.167 1768.667 256 1760 256 L 160 256 C 151.333 256 143.833 259.167 137.5 265.5 C 131.167 271.833 128 279.333 128 288 L 128 1120 C 128 1128.667 131.167 1136.167 137.5 1142.5 C 143.833 1148.833 151.333 1152 160 1152 L 1760 1152 C 1768.667 1152 1776.167 1148.833 1782.5 1142.5 C 1788.833 1136.167 1792 1128.667 1792 1120 Z M 1920 288 L 1920 1376 C 1920 1420 1904.333 1457.667 1873 1489 C 1841.667 1520.333 1804 1536 1760 1536 L 1216 1536 C 1216 1560.667 1221.333 1586.5 1232 1613.5 C 1242.667 1640.5 1253.333 1664.167 1264 1684.5 C 1274.667 1704.833 1280 1719.333 1280 1728 C 1280 1745.333 1273.667 1760.333 1261 1773 C 1248.333 1785.667 1233.333 1792 1216 1792 L 704 1792 C 686.667 1792 671.667 1785.667 659 1773 C 646.333 1760.333 640 1745.333 640 1728 C 640 1718.667 645.333 1704 656 1684 C 666.667 1664 677.333 1640.667 688 1614 C 698.667 1587.333 704 1561.333 704 1536 L 160 1536 C 116 1536 78.333 1520.333 47 1489 C 15.667 1457.667 0 1420 0 1376 L 0 288 C 0 244 15.667 206.333 47 175 C 78.333 143.667 116 128 160 128 L 1760 128 C 1804 128 1841.667 143.667 1873 175 C 1904.333 206.333 1920 244 1920 288 Z" stroke-opacity="0" stroke-miterlimit="10"/></g></g></g><g transform="translate(0,0) matrix(1,0,0,1,0,143.90103615340345) scale(0.028209702379091497,0.024982818776632533) translate(0,-128)"><g transform="translate(0,0) scale(1,1)"><g><path fill="#fff" stroke="rgb(0,0,0)" d="M 1792 1120 L 1792 288 C 1792 279.333 1788.833 271.833 1782.5 265.5 C 1776.167 259.167 1768.667 256 1760 256 L 160 256 C 151.333 256 143.833 259.167 137.5 265.5 C 131.167 271.833 128 279.333 128 288 L 128 1120 C 128 1128.667 131.167 1136.167 137.5 1142.5 C 143.833 1148.833 151.333 1152 160 1152 L 1760 1152 C 1768.667 1152 1776.167 1148.833 1782.5 1142.5 C 1788.833 1136.167 1792 1128.667 1792 1120 Z M 1920 288 L 1920 1376 C 1920 1420 1904.333 1457.667 1873 1489 C 1841.667 1520.333 1804 1536 1760 1536 L 1216 1536 C 1216 1560.667 1221.333 1586.5 1232 1613.5 C 1242.667 1640.5 1253.333 1664.167 1264 1684.5 C 1274.667 1704.833 1280 1719.333 1280 1728 C 1280 1745.333 1273.667 1760.333 1261 1773 C 1248.333 1785.667 1233.333 1792 1216 1792 L 704 1792 C 686.667 1792 671.667 1785.667 659 1773 C 646.333 1760.333 640 1745.333 640 1728 C 640 1718.667 645.333 1704 656 1684 C 666.667 1664 677.333 1640.667 688 1614 C 698.667 1587.333 704 1561.333 704 1536 L 160 1536 C 116 1536 78.333 1520.333 47 1489 C 15.667 1457.667 0 1420 0 1376 L 0 288 C 0 244 15.667 206.333 47 175 C 78.333 143.667 116 128 160 128 L 1760 128 C 1804 128 1841.667 143.667 1873 175 C 1904.333 206.333 1920 244 1920 288 Z" stroke-opacity="0" stroke-miterlimit="10"/></g></g></g><g transform="translate(0,0) matrix(1,0,0,1,64.99515428142666,148.6977373585169) scale(0.028209702379091497,0.024982818776632533) translate(64,-256)"><g transform="translate(0,0) scale(1,1)"><g><path fill="#fff" stroke="rgb(0,0,0)" d="M 352 1280 Q 286 1280 239 1233 Q 192 1186 192 1120 L 192 416 Q 192 350 239 303 Q 286 256 352 256 L 1440 256 Q 1506 256 1553 303 Q 1600 350 1600 416 L 1600 1120 Q 1600 1186 1553 1233 Q 1506 1280 1440 1280 L 352 1280 Z M 320 416 L 320 1120 Q 320 1133 329.5 1142.5 Q 339 1152 352 1152 L 1440 1152 Q 1453 1152 1462.5 1142.5 Q 1472 1133 1472 1120 L 1472 416 Q 1472 403 1462.5 393.5 Q 1453 384 1440 384 L 352 384 Q 339 384 329.5 393.5 Q 320 403 320 416 Z M 1696 1344 L 1856 1344 L 1856 1440 Q 1856 1480 1809 1508 Q 1762 1536 1696 1536 L 96 1536 Q 30 1536 -17 1508 Q -64 1480 -64 1440 L -64 1344 L 1696 1344 Z M 976 1440 Q 992 1440 992 1424 Q 992 1408 976 1408 L 816 1408 Q 800 1408 800 1424 Q 800 1440 816 1440 L 976 1440 Z" stroke-opacity="0" stroke-miterlimit="10"/></g></g></g><g transform="translate(0,0) matrix(1,0,0,1,126.37946665833022,145.49993655510778) scale(0.028209702379091497,0.024982818776632523) translate(-320,-128)"><g transform="translate(0,0) scale(1,1)"><g><path fill="#fff" stroke="rgb(0,0,0)" d="M 960 1408 Q 960 1382 941 1363 Q 922 1344 896 1344 Q 870 1344 851 1363 Q 832 1382 832 1408 Q 832 1434 851 1453 Q 870 1472 896 1472 Q 922 1472 941 1453 Q 960 1434 960 1408 Z M 1344 1248 L 1344 288 Q 1344 275 1334.5 265.5 Q 1325 256 1312 256 L 480 256 Q 467 256 457.5 265.5 Q 448 275 448 288 L 448 1248 Q 448 1261 457.5 1270.5 Q 467 1280 480 1280 L 1312 1280 Q 1325 1280 1334.5 1270.5 Q 1344 1261 1344 1248 Z M 1472 288 L 1472 1376 Q 1472 1442 1425 1489 Q 1378 1536 1312 1536 L 480 1536 Q 414 1536 367 1489 Q 320 1442 320 1376 L 320 288 Q 320 222 367 175 Q 414 128 480 128 L 1312 128 Q 1378 128 1425 175 Q 1472 222 1472 288 Z" stroke-opacity="0" stroke-miterlimit="10"/></g></g></g><g transform="translate(0,0) matrix(1,0,0,1,172.56541720073787,147.09883695681233) scale(0.0282097023790915,0.024982818776632533) translate(-512,-256)"><g transform="translate(0,0) scale(1,1)"><g><path fill="#fff" stroke="rgb(0,0,0)" d="M 976 1408 Q 976 1375 952.5 1351.5 Q 929 1328 896 1328 Q 863 1328 839.5 1351.5 Q 816 1375 816 1408 Q 816 1441 839.5 1464.5 Q 863 1488 896 1488 Q 929 1488 952.5 1464.5 Q 976 1441 976 1408 Z M 1184 1248 L 1184 544 Q 1184 531 1174.5 521.5 Q 1165 512 1152 512 L 640 512 Q 627 512 617.5 521.5 Q 608 531 608 544 L 608 1248 Q 608 1261 617.5 1270.5 Q 627 1280 640 1280 L 1152 1280 Q 1165 1280 1174.5 1270.5 Q 1184 1261 1184 1248 Z M 992 400 Q 992 384 976 384 L 816 384 Q 800 384 800 400 Q 800 416 816 416 L 976 416 Q 992 416 992 400 Z M 1280 384 L 1280 1408 Q 1280 1460 1242 1498 Q 1204 1536 1152 1536 L 640 1536 Q 588 1536 550 1498 Q 512 1460 512 1408 L 512 384 Q 512 332 550 294 Q 588 256 640 256 L 1152 256 Q 1204 256 1242 294 Q 1280 332 1280 384 Z" stroke-opacity="0" stroke-miterlimit="10"/></g></g></g><g transform="translate(0,0) matrix(1,0,0,1,54.16262856785574,3.197800803409083) scale(0.028209702379091497,0.024982818776632523) translate(-320,-128)"><g transform="translate(0,0) scale(1,1)"><g><path fill="#fff" stroke="rgb(0,0,0)" d="M 960 1408 Q 960 1382 941 1363 Q 922 1344 896 1344 Q 870 1344 851 1363 Q 832 1382 832 1408 Q 832 1434 851 1453 Q 870 1472 896 1472 Q 922 1472 941 1453 Q 960 1434 960 1408 Z M 1344 1248 L 1344 288 Q 1344 275 1334.5 265.5 Q 1325 256 1312 256 L 480 256 Q 467 256 457.5 265.5 Q 448 275 448 288 L 448 1248 Q 448 1261 457.5 1270.5 Q 467 1280 480 1280 L 1312 1280 Q 1325 1280 1334.5 1270.5 Q 1344 1261 1344 1248 Z M 1472 288 L 1472 1376 Q 1472 1442 1425 1489 Q 1378 1536 1312 1536 L 480 1536 Q 414 1536 367 1489 Q 320 1442 320 1376 L 320 288 Q 320 222 367 175 Q 414 128 480 128 L 1312 128 Q 1378 128 1425 175 Q 1472 222 1472 288 Z" stroke-opacity="0" stroke-miterlimit="10"/></g></g></g><g transform="translate(0,0) matrix(1,0,0,1,96.73773720573988,3.1978008034088803) scale(0.0282097023790915,0.024982818776632533) translate(-512,-256)"><g transform="translate(0,0) scale(1,1)"><g><path fill="#fff" stroke="rgb(0,0,0)" d="M 976 1408 Q 976 1375 952.5 1351.5 Q 929 1328 896 1328 Q 863 1328 839.5 1351.5 Q 816 1375 816 1408 Q 816 1441 839.5 1464.5 Q 863 1488 896 1488 Q 929 1488 952.5 1464.5 Q 976 1441 976 1408 Z M 1184 1248 L 1184 544 Q 1184 531 1174.5 521.5 Q 1165 512 1152 512 L 640 512 Q 627 512 617.5 521.5 Q 608 531 608 544 L 608 1248 Q 608 1261 617.5 1270.5 Q 627 1280 640 1280 L 1152 1280 Q 1165 1280 1174.5 1270.5 Q 1184 1261 1184 1248 Z M 992 400 Q 992 384 976 384 L 816 384 Q 800 384 800 400 Q 800 416 816 416 L 976 416 Q 992 416 992 400 Z M 1280 384 L 1280 1408 Q 1280 1460 1242 1498 Q 1204 1536 1152 1536 L 640 1536 Q 588 1536 550 1498 Q 512 1460 512 1408 L 512 384 Q 512 332 550 294 Q 588 256 640 256 L 1152 256 Q 1204 256 1242 294 Q 1280 332 1280 384 Z" stroke-opacity="0" stroke-miterlimit="10"/></g></g></g><g transform="translate(0,0) matrix(1,0,0,1,18.054209522618716,47.96701205113503) scale(0.028209702379091497,0.024982818776632523) translate(-320,-128)"><g transform="translate(0,0) scale(1,1)"><g><path fill="#fff" stroke="rgb(0,0,0)" d="M 960 1408 Q 960 1382 941 1363 Q 922 1344 896 1344 Q 870 1344 851 1363 Q 832 1382 832 1408 Q 832 1434 851 1453 Q 870 1472 896 1472 Q 922 1472 941 1453 Q 960 1434 960 1408 Z M 1344 1248 L 1344 288 Q 1344 275 1334.5 265.5 Q 1325 256 1312 256 L 480 256 Q 467 256 457.5 265.5 Q 448 275 448 288 L 448 1248 Q 448 1261 457.5 1270.5 Q 467 1280 480 1280 L 1312 1280 Q 1325 1280 1334.5 1270.5 Q 1344 1261 1344 1248 Z M 1472 288 L 1472 1376 Q 1472 1442 1425 1489 Q 1378 1536 1312 1536 L 480 1536 Q 414 1536 367 1489 Q 320 1442 320 1376 L 320 288 Q 320 222 367 175 Q 414 128 480 128 L 1312 128 Q 1378 128 1425 175 Q 1472 222 1472 288 Z" stroke-opacity="0" stroke-miterlimit="10"/></g></g></g><g transform="translate(0,0) matrix(1,0,0,1,60.62931816050285,47.96701205113482) scale(0.0282097023790915,0.024982818776632533) translate(-512,-256)"><g transform="translate(0,0) scale(1,1)"><g><path fill="#fff" stroke="rgb(0,0,0)" d="M 976 1408 Q 976 1375 952.5 1351.5 Q 929 1328 896 1328 Q 863 1328 839.5 1351.5 Q 816 1375 816 1408 Q 816 1441 839.5 1464.5 Q 863 1488 896 1488 Q 929 1488 952.5 1464.5 Q 976 1441 976 1408 Z M 1184 1248 L 1184 544 Q 1184 531 1174.5 521.5 Q 1165 512 1152 512 L 640 512 Q 627 512 617.5 521.5 Q 608 531 608 544 L 608 1248 Q 608 1261 617.5 1270.5 Q 627 1280 640 1280 L 1152 1280 Q 1165 1280 1174.5 1270.5 Q 1184 1261 1184 1248 Z M 992 400 Q 992 384 976 384 L 816 384 Q 800 384 800 400 Q 800 416 816 416 L 976 416 Q 992 416 992 400 Z M 1280 384 L 1280 1408 Q 1280 1460 1242 1498 Q 1204 1536 1152 1536 L 640 1536 Q 588 1536 550 1498 Q 512 1460 512 1408 L 512 384 Q 512 332 550 294 Q 588 256 640 256 L 1152 256 Q 1204 256 1242 294 Q 1280 332 1280 384 Z" stroke-opacity="0" stroke-miterlimit="10"/></g></g></g><g transform="translate(0,0) matrix(1,0,0,1,952.5072685778598,100.73072530738226) scale(0.028209702379091497,0.024982818776632533) translate(64,-256)"><g transform="translate(0,0) scale(1,1)"><g><path fill="#fff" stroke="rgb(0,0,0)" d="M 352 1280 Q 286 1280 239 1233 Q 192 1186 192 1120 L 192 416 Q 192 350 239 303 Q 286 256 352 256 L 1440 256 Q 1506 256 1553 303 Q 1600 350 1600 416 L 1600 1120 Q 1600 1186 1553 1233 Q 1506 1280 1440 1280 L 352 1280 Z M 320 416 L 320 1120 Q 320 1133 329.5 1142.5 Q 339 1152 352 1152 L 1440 1152 Q 1453 1152 1462.5 1142.5 Q 1472 1133 1472 1120 L 1472 416 Q 1472 403 1462.5 393.5 Q 1453 384 1440 384 L 352 384 Q 339 384 329.5 393.5 Q 320 403 320 416 Z M 1696 1344 L 1856 1344 L 1856 1440 Q 1856 1480 1809 1508 Q 1762 1536 1696 1536 L 96 1536 Q 30 1536 -17 1508 Q -64 1480 -64 1440 L -64 1344 L 1696 1344 Z M 976 1440 Q 992 1440 992 1424 Q 992 1408 976 1408 L 816 1408 Q 800 1408 800 1424 Q 800 1440 816 1440 L 976 1440 Z" stroke-opacity="0" stroke-miterlimit="10"/></g></g></g><g transform="translate(0,0) matrix(1,0,0,1,1017.5024228592865,99.13182490567772) scale(0.028209702379091497,0.024982818776632523) translate(-320,-128)"><g transform="translate(0,0) scale(1,1)"><g><path fill="#fff" stroke="rgb(0,0,0)" d="M 960 1408 Q 960 1382 941 1363 Q 922 1344 896 1344 Q 870 1344 851 1363 Q 832 1382 832 1408 Q 832 1434 851 1453 Q 870 1472 896 1472 Q 922 1472 941 1453 Q 960 1434 960 1408 Z M 1344 1248 L 1344 288 Q 1344 275 1334.5 265.5 Q 1325 256 1312 256 L 480 256 Q 467 256 457.5 265.5 Q 448 275 448 288 L 448 1248 Q 448 1261 457.5 1270.5 Q 467 1280 480 1280 L 1312 1280 Q 1325 1280 1334.5 1270.5 Q 1344 1261 1344 1248 Z M 1472 288 L 1472 1376 Q 1472 1442 1425 1489 Q 1378 1536 1312 1536 L 480 1536 Q 414 1536 367 1489 Q 320 1442 320 1376 L 320 288 Q 320 222 367 175 Q 414 128 480 128 L 1312 128 Q 1378 128 1425 175 Q 1472 222 1472 288 Z" stroke-opacity="0" stroke-miterlimit="10"/></g></g></g><g transform="translate(0,0) matrix(1,0,0,1,912.788007628099,148.6977373585169) scale(0.028209702379091497,0.024982818776632533) translate(64,-256)"><g transform="translate(0,0) scale(1,1)"><g><path fill="#fff" stroke="rgb(0,0,0)" d="M 352 1280 Q 286 1280 239 1233 Q 192 1186 192 1120 L 192 416 Q 192 350 239 303 Q 286 256 352 256 L 1440 256 Q 1506 256 1553 303 Q 1600 350 1600 416 L 1600 1120 Q 1600 1186 1553 1233 Q 1506 1280 1440 1280 L 352 1280 Z M 320 416 L 320 1120 Q 320 1133 329.5 1142.5 Q 339 1152 352 1152 L 1440 1152 Q 1453 1152 1462.5 1142.5 Q 1472 1133 1472 1120 L 1472 416 Q 1472 403 1462.5 393.5 Q 1453 384 1440 384 L 352 384 Q 339 384 329.5 393.5 Q 320 403 320 416 Z M 1696 1344 L 1856 1344 L 1856 1440 Q 1856 1480 1809 1508 Q 1762 1536 1696 1536 L 96 1536 Q 30 1536 -17 1508 Q -64 1480 -64 1440 L -64 1344 L 1696 1344 Z M 976 1440 Q 992 1440 992 1424 Q 992 1408 976 1408 L 816 1408 Q 800 1408 800 1424 Q 800 1440 816 1440 L 976 1440 Z" stroke-opacity="0" stroke-miterlimit="10"/></g></g></g><g transform="translate(0,0) matrix(1,0,0,1,977.7831619095257,147.09883695681233) scale(0.028209702379091497,0.024982818776632523) translate(-320,-128)"><g transform="translate(0,0) scale(1,1)"><g><path fill="#fff" stroke="rgb(0,0,0)" d="M 960 1408 Q 960 1382 941 1363 Q 922 1344 896 1344 Q 870 1344 851 1363 Q 832 1382 832 1408 Q 832 1434 851 1453 Q 870 1472 896 1472 Q 922 1472 941 1453 Q 960 1434 960 1408 Z M 1344 1248 L 1344 288 Q 1344 275 1334.5 265.5 Q 1325 256 1312 256 L 480 256 Q 467 256 457.5 265.5 Q 448 275 448 288 L 448 1248 Q 448 1261 457.5 1270.5 Q 467 1280 480 1280 L 1312 1280 Q 1325 1280 1334.5 1270.5 Q 1344 1261 1344 1248 Z M 1472 288 L 1472 1376 Q 1472 1442 1425 1489 Q 1378 1536 1312 1536 L 480 1536 Q 414 1536 367 1489 Q 320 1442 320 1376 L 320 288 Q 320 222 367 175 Q 414 128 480 128 L 1312 128 Q 1378 128 1425 175 Q 1472 222 1472 288 Z" stroke-opacity="0" stroke-miterlimit="10"/></g></g></g></g></svg>